<?xml version="1.0" encoding="UTF-8"?>
<svg version="1.1" xmlns="http://www.w3.org/2000/svg" width="2500" height="2500">
<path d="M0 0 C6.6 0 13.2 0 20 0 C21.49739583 3.02734375 22.99479167 6.0546875 24.4921875 9.08203125 C25.97221139 12.07838265 25.97221139 12.07838265 28 15 C28.48908858 16.35123982 28.93630235 17.7180263 29.3515625 19.09375 C30.96684768 24.10376876 33.08870871 28.76521432 35.375 33.5 C35.74882813 34.29019531 36.12265625 35.08039063 36.5078125 35.89453125 C38.43477838 39.92664137 40.45942205 43.858859 42.671875 47.7421875 C44.49412821 50.97751589 45.84921512 54.04004048 46.875 57.625 C49.94612315 67.31938874 54.32964338 76.39841977 59.625 85.0625 C62.82848776 90.37072915 64.78711548 95.74146449 66.74609375 101.60546875 C68.31346701 105.84860695 70.40272424 109.61886825 72.65234375 113.53125 C73.88363678 115.78683608 74.82652234 117.95885328 75.6875 120.375 C76.82327172 123.88950425 76.82327172 123.88950425 78.45703125 126.3828125 C80.50632984 129.85883795 81.65316201 133.47104728 82.9375 137.28125 C84.03803221 140.09731772 85.43739541 142.41298005 87 145 C88.49326673 147.99466109 89.90020143 151.02897234 91.3125 154.0625 C93.85140649 159.48715812 96.42099508 164.87405404 99.1875 170.1875 C101.79857407 175.32356878 103.7365713 180.59041593 105.67822266 186.00195312 C107.73191191 191.59055001 110.41779915 196.65471256 113.33984375 201.84375 C115.56677438 206.07753811 117.17227845 210.4591057 118.82421875 214.94140625 C120.917484 220.38667766 123.57483844 225.51258275 126.47265625 230.5703125 C129.28967281 235.51269962 131.54966358 240.29111952 133.375 245.6875 C135.45262247 251.80643328 138.08763676 257.40751303 141.04052734 263.14770508 C149 278.66924719 149 278.66924719 149 283 C149.66 283 150.32 283 151 283 C151.32613281 283.79664063 151.65226562 284.59328125 151.98828125 285.4140625 C154.71125806 292.0434063 154.71125806 292.0434063 157.8125 298.5 C159 301 159 301 159 305 C159.66 305 160.32 305 161 305 C161.18433594 305.50144531 161.36867188 306.00289062 161.55859375 306.51953125 C164.87966536 315.18383807 168.97826699 323.47984654 172.97509766 331.84570312 C175.61816138 337.40129966 178.14132947 343.00566846 180.57421875 348.65625 C183.90786874 356.39800076 187.40215593 364.00554404 191.24731445 371.50854492 C193.34403254 375.61147143 195.22184442 379.74854586 197 384 C199.18649109 389.0958629 201.52953042 394.0657251 204.0625 399 C206.25897678 403.32672814 207.93664653 407.54984657 209.35546875 412.1796875 C210.17307004 414.48879176 211.47690077 416.09612597 213 418 C213.72157253 419.67273632 214.43981988 421.34718649 215.125 423.03515625 C216.07327134 425.16453341 217.19495836 427.11524159 218.375 429.125 C220.30790426 432.54606949 221.81655046 435.94329805 223.1875 439.625 C228.67794865 454.3525242 235.16585722 468.70051104 242.32421875 482.6875 C244.00757319 486.01496985 245.54348147 489.373116 247.01245117 492.79882812 C248.02948178 495.06571268 249.14277816 497.26052322 250.28125 499.46875 C253.26151299 505.3988374 255.78087147 511.49322484 258.3125 517.625 C262.49806017 527.64684355 266.98377256 537.36973708 272 547 C274.11910694 551.12717544 276.17260003 555.19245826 277.75 559.5625 C279.54322183 564.14517802 281.70129782 568.46833354 284 572.8125 C284.33225586 573.44679932 284.66451172 574.08109863 285.00683594 574.73461914 C287.56950785 579.50151648 290.15075085 583.55841281 294.4453125 586.90625 C297.49926947 589.40918721 299.64285433 592.28417448 301.875 595.5 C302.30699707 596.11222412 302.73899414 596.72444824 303.18408203 597.35522461 C306.55710687 602.20199221 309.57531601 607.20804735 312.4296875 612.37890625 C314.10499803 615.17525791 315.75962933 617.62632513 318 620 C321.66974518 620.0951654 321.66974518 620.0951654 325 619 C325.33 618.34 325.66 617.68 326 617 C326.66 617 327.32 617 328 617 C328.268125 616.29875 328.53625 615.5975 328.8125 614.875 C330.0681449 611.8350176 331.50235123 608.9272226 333 606 C333.66 606 334.32 606 335 606 C335.226875 605.154375 335.45375 604.30875 335.6875 603.4375 C337.19238618 599.49613144 339.12703255 596.11238141 342 593 C342.66 593 343.32 593 344 593 C344.33 592.01 344.66 591.02 345 590 C349.4270792 588.04276498 353.63912091 587.64021236 358.4375 587.375 C359.69433594 587.30023437 360.95117188 587.22546875 362.24609375 587.1484375 C372.25767442 586.75255814 372.25767442 586.75255814 376 588 C378.25037867 587.99434578 380.50077916 587.94739981 382.75 587.875 C388.38863485 587.81662904 392.12035608 588.21163205 397 591 C397.46257335 596.78216689 396.46911851 599.40851962 393 604 C392.30570621 605.3191582 391.62469505 606.64649406 391 608 C390.34 608 389.68 608 389 608 C388.731875 609.093125 388.46375 610.18625 388.1875 611.3125 C386.63494968 616.13357731 386.63494968 616.13357731 384 618 C383.34 618 382.68 618 382 618 C381.773125 618.721875 381.54625 619.44375 381.3125 620.1875 C380 623 380 623 377.375 625.5625 C374.53475685 627.91028 374.53475685 627.91028 375 632 C373.5625 633.625 373.5625 633.625 372 635 C371.67 635.66 371.34 636.32 371 637 C370.34 637 369.68 637 369 637 C368.814375 637.70125 368.62875 638.4025 368.4375 639.125 C366.69273612 642.61452776 364.53395424 644.24987129 361.4609375 646.5703125 C360.97882812 647.04210938 360.49671875 647.51390625 360 648 C360 648.99 360 649.98 360 651 C359.0010511 652.60574843 357.99651295 654.20864046 356.94873047 655.78295898 C353.30478009 661.18562151 353.30478009 661.18562151 352.0078125 667.39453125 C353.06352747 669.88164354 354.4008329 671.81585619 356 674 C356.75369908 675.16129791 357.50054524 676.32705915 358.2421875 677.49609375 C362.57392166 684.24660209 367.23772904 690.73539096 372 697.1875 C374.71003794 700.99849085 377.20828047 704.93062972 379.71508789 708.87695312 C382.42719862 713.13775566 385.24569262 717.29826393 388.171875 721.4140625 C389.5747544 723.39847738 390.95767241 725.39178293 392.328125 727.3984375 C392.72966797 727.98488037 393.13121094 728.57132324 393.54492188 729.17553711 C394.69302687 730.85419873 395.83876323 732.53447963 396.984375 734.21484375 C399.24705064 737.34375848 399.24705064 737.34375848 402 740 C402.66 740 403.32 740 404 740 C405.26509324 733.23541052 406.30599246 727.1206479 405.22265625 720.296875 C404.95315829 717.51679077 405.20865391 714.96428005 405.5 712.1875 C406.03087482 706.91235151 405.78751622 702.00308446 405.26171875 696.73828125 C404.74499183 691.33192942 404.96591042 686.08943463 405.5 680.6875 C406.24346622 672.91296753 406.09842261 665.30290508 405.58935547 657.52001953 C405.53924316 656.75028809 405.48913086 655.98055664 405.4375 655.1875 C405.3873877 654.41905762 405.33727539 653.65061523 405.28564453 652.85888672 C404.93296355 646.72120414 405.21366958 640.84446032 405.84375 634.72265625 C406.17392956 631.90501757 406.17392956 631.90501757 405 629 C405.32831825 626.66595572 405.66278687 624.33277578 406 622 C406.14665467 618.62414925 406.13997145 615.25355757 406.125 611.875 C406.12886719 610.99457031 406.13273437 610.11414062 406.13671875 609.20703125 C406.13036663 604.99557868 406.00668029 601.11323275 405 597 C404.875 594.4375 404.875 594.4375 406 592 C413.10368323 587.04280918 421.24361943 587.36582186 429.5625 587.4375 C430.83802734 587.41365234 432.11355469 587.38980469 433.42773438 587.36523438 C441.07695149 587.37714286 446.05944148 588.08905013 452 593 C454.75698184 595.28138945 454.75698184 595.28138945 457.5625 594.8125 C460.33255117 594.16627558 460.33255117 594.16627558 462 591 C463.32 591 464.64 591 466 591 C466.33 590.01 466.66 589.02 467 588 C472.28547842 584.4965986 477.69217514 582.41137988 484 582 C484 581.67 484 581.34 484 581 C487.9790243 580.91197848 491.95779388 580.85926767 495.9375 580.8125 C497.61295898 580.77479492 497.61295898 580.77479492 499.32226562 580.73632812 C506.16369331 580.67613961 511.69844389 581.30882286 518 584 C518.89589844 584.35320313 519.79179688 584.70640625 520.71484375 585.0703125 C526.65072439 587.88698697 530.96575121 591.43509016 535.578125 596.109375 C538.47035103 598.36717725 540.35624035 598.84776745 544 599 C547.16666667 597.25 547.16666667 597.25 550 595 C551.3191582 594.30570621 552.64649406 593.62469505 554 593 C554 592.34 554 591.68 554 591 C556.04104571 589.89468593 558.08286536 588.79080093 560.125 587.6875 C561.26195312 587.07261719 562.39890625 586.45773437 563.5703125 585.82421875 C564.70210937 585.22222656 565.83390625 584.62023438 567 584 C567.92433838 583.47486816 568.84867676 582.94973633 569.80102539 582.40869141 C573.3491741 580.84623868 575.75490305 580.62650629 579.61328125 580.63671875 C580.86173828 580.63736328 582.11019531 580.63800781 583.39648438 580.63867188 C585.33491211 580.6628418 585.33491211 580.6628418 587.3125 580.6875 C588.59318359 580.68427734 589.87386719 580.68105469 591.19335938 580.67773438 C605.70877016 580.75991117 615.82949131 583.76072975 626.87890625 593.55078125 C632.87040569 599.72086488 636.37481699 605.84586013 639 614 C639.30550781 614.92941406 639.61101562 615.85882812 639.92578125 616.81640625 C641.60942755 622.42590081 642.43244274 627.84572874 642.7890625 633.6875 C642.92549096 636.15771092 642.92549096 636.15771092 644 639 C644.01613861 640.845423 643.96521537 642.69168202 643.87890625 644.53515625 C643.80615479 646.30209839 643.80615479 646.30209839 643.73193359 648.10473633 C643.67602051 649.41079834 643.62010742 650.71686035 643.5625 652.0625 C642.98357705 667.14495438 642.88255988 682.22008759 642.875 697.3125 C642.87259308 698.40499054 642.87018616 699.49748108 642.8677063 700.62307739 C642.86173605 703.78650931 642.86319287 706.94984777 642.8671875 710.11328125 C642.86519852 711.04875793 642.86320953 711.98423462 642.86116028 712.94805908 C642.88045433 718.50661716 643.20212339 723.95858591 643.79431152 729.48629761 C644.13218731 733.61545047 643.89540416 737.68545649 643.625 741.8125 C643.58117188 742.61880859 643.53734375 743.42511719 643.4921875 744.25585938 C643.28685768 747.74361444 643.02085041 750.91215993 642.2109375 754.32421875 C641.71616641 757.08579327 641.71616641 757.08579327 643.52734375 759.296875 C653.26621336 766.00484838 673.23362315 763.81890656 684.54858398 762.49780273 C690.31594865 761.9070958 696.03468257 761.85620486 701.828125 761.8671875 C702.95491669 761.86591354 704.08170837 761.86463959 705.24264526 761.86332703 C708.9117898 761.86152371 712.58086273 761.86788477 716.25 761.875 C717.50810486 761.87555389 718.76620972 761.87610779 720.06243896 761.87667847 C739.98214076 761.88692831 759.88764135 762.14154303 779.79669189 762.80844116 C786.53054894 762.97214035 793.20909728 763.04642166 799.93635178 762.66167259 C818.31164314 761.62155945 836.72759422 761.85340316 855.12476635 761.8656745 C860.18573749 761.86824008 865.24670699 761.86584947 870.30767822 761.86428833 C878.7865024 761.86248073 887.26531779 761.86483776 895.74414062 761.86962891 C905.52089757 761.87508996 915.29763371 761.87328987 925.07439017 761.8678025 C933.51572209 761.86325619 941.95704777 761.86262762 950.39838052 761.86524117 C955.42023068 761.86679288 960.44207107 761.86702777 965.46392059 761.86370468 C970.17552283 761.86080308 974.8870983 761.8628435 979.59869766 761.86859894 C981.31953258 761.86991339 983.04036978 761.86955496 984.76120377 761.86733627 C992.79456559 761.85793804 1000.745443 761.85620415 1008.73035049 762.88345528 C1011.31869666 763.01636482 1013.47016675 762.53665916 1016 762 C1017.66670091 761.91549392 1019.33624028 761.87793742 1021.00508118 761.87974548 C1021.98799637 761.87837082 1022.97091156 761.87699615 1023.98361206 761.87557983 C1025.05032135 761.87917511 1026.11703064 761.88277039 1027.21606445 761.88647461 C1028.34820877 761.88632858 1029.48035309 761.88618256 1030.64680481 761.8860321 C1034.38564984 761.88672828 1038.12444493 761.89450694 1041.86328125 761.90234375 C1044.45688347 761.90420898 1047.05048605 761.90563239 1049.64408875 761.90663147 C1055.77089402 761.91005836 1061.89767871 761.91793838 1068.02447623 761.92798096 C1075.00148234 761.93916827 1081.97848931 761.94465914 1088.95550215 761.94967639 C1103.3036777 761.9601217 1117.65183822 761.97770482 1132 762 C1132.83524202 765.91162004 1133.1343634 769.49246296 1133.125 773.5 C1133.12757812 774.6034375 1133.13015625 775.706875 1133.1328125 776.84375 C1133.01292591 779.69281945 1132.593306 782.22141895 1132 785 C1122.57695256 786.12486142 1113.19972167 786.13526789 1103.7285614 786.11352539 C1101.98583169 786.11324501 1100.24310187 786.11340907 1098.50037223 786.11397648 C1093.73342102 786.11427081 1088.96649496 786.10835451 1084.19954956 786.10140657 C1079.04930952 786.09501315 1073.89906847 786.09446185 1068.74882507 786.0932312 C1059.82799059 786.09034805 1050.90716442 786.08391403 1041.98633385 786.07516479 C1029.06446247 786.0625859 1016.14259414 786.05652798 1003.22071765 786.05223143 C982.22258212 786.04516695 961.22445045 786.03436935 940.22631836 786.02050781 C938.34227438 786.01926609 938.34227438 786.01926609 936.42016891 786.01799929 C926.23581276 786.01125874 916.05145673 786.00433692 905.86710072 785.99739647 C896.98065509 785.99134609 888.09420942 785.98536458 879.20776367 785.97949219 C877.33102773 785.97825 877.33102773 785.97825 875.41637792 785.97698271 C854.50843514 785.96326698 833.60049229 785.95352322 812.69254619 785.94658184 C799.81462743 785.94211554 786.93672028 785.93410642 774.05880693 785.92143703 C765.22133622 785.91297061 756.38386816 785.90811121 747.54639366 785.90601182 C742.45814055 785.90467527 737.36990246 785.90172252 732.28165436 785.89425278 C705.71990528 785.7993664 705.71990528 785.7993664 679.18150043 786.77857971 C672.56218268 787.16830286 665.94063191 787.07208409 659.3125 787 C656.82946988 786.97457214 654.34638994 786.95351145 651.86328125 786.9375 C650.80407471 786.92589844 649.74486816 786.91429687 648.65356445 786.90234375 C645.89315968 786.87943339 645.89315968 786.87943339 643 788 C640.81237064 793.3462386 640.70070097 799.31331847 641 805 C641.33 805.66 641.66 806.32 642 807 C642.28515809 812.51305641 641.800939 817.60361786 641 823.0625 C639.99203681 830.2125751 639.80809764 837.28398638 639.8125 844.5 C639.81185547 845.51457275 639.81121094 846.52914551 639.81054688 847.57446289 C639.8510496 853.14865031 640.24309507 858.4813723 641 864 C641.90013614 874.38849749 642.09744436 884.82812352 642.125 895.25 C642.12959229 896.21365479 642.13418457 897.17730957 642.13891602 898.17016602 C642.13021261 902.13856897 642.0204231 905.86403248 641.4296875 909.796875 C640.97502705 913.18616202 641.3617451 915.66009078 642 919 C642.18592741 923.44038413 642.11729345 927.87453147 642.04150391 932.31689453 C642.01115769 934.27868799 641.99148811 936.24065474 641.97802734 938.20263672 C641.94883349 941.69847741 641.88376169 945.19228395 641.8125 948.6875 C641.80686035 949.82219727 641.8012207 950.95689453 641.79541016 952.12597656 C641.57637621 960.20724013 641.57637621 960.20724013 638.6796875 964.19140625 C635.25445472 966.50318872 632.01813906 967.3812777 628 968 C627.28199219 968.12246094 626.56398438 968.24492188 625.82421875 968.37109375 C616.5734074 969.6304479 604.75957275 970.54168786 596.8125 965 C596.17957031 964.46375 595.54664063 963.9275 594.89453125 963.375 C592.43048876 961.58666401 591.06719059 961.05326525 588 961 C585.47290797 962.32204352 583.31211996 963.62459943 581 965.25 C579.79201794 966.06822717 578.58369069 966.88594499 577.375 967.703125 C575.41282041 969.0358594 573.45614695 970.3753352 571.50390625 971.72265625 C561.89724266 976.62340351 546.32844456 976.24531403 536 974 C534.91525391 973.86851562 534.91525391 973.86851562 533.80859375 973.734375 C526.30763654 972.65442498 521.13211603 969.29830285 515 965 C513.9275 964.319375 512.855 963.63875 511.75 962.9375 C510.8425 962.298125 509.935 961.65875 509 961 C508.2265625 960.46439453 508.2265625 960.46439453 507.4375 959.91796875 C495.48796447 950.76219037 487.97865252 935.29310383 483.7265625 921.23046875 C483.00927406 918.91572321 483.00927406 918.91572321 481.8984375 916.42578125 C478.8238787 909.09494547 478.9826587 903.77472756 480 896 C480.18235022 893.39688452 480.34857071 890.79259711 480.5 888.1875 C480.7869891 883.40605657 481.30747938 878.73858595 482 874 C482.15856237 872.1677237 482.30531759 870.33436809 482.4375 868.5 C483.39677602 857.60322398 483.39677602 857.60322398 487 854 C487.40047444 851.67724823 487.7397104 849.34260643 488 847 C488.66 847 489.32 847 490 847 C490.07347656 845.99324219 490.14695312 844.98648438 490.22265625 843.94921875 C490.85998445 839.49912216 492.90544146 836.44614269 495.4375 832.8125 C498.50750942 828.36893122 498.50750942 828.36893122 501.140625 823.6640625 C502.43554024 821.15663572 504.59022607 820.40103135 507 819 C507.73476562 818.23945312 508.46953125 817.47890625 509.2265625 816.6953125 C517.49154153 808.66314978 527.50962063 803.75557085 539 803 C540.24523438 802.85949219 541.49046875 802.71898437 542.7734375 802.57421875 C556.31586663 801.17185217 567.76378059 803.01729159 579.390625 810.48046875 C582.73281029 812.42674132 585.17617471 812.91309488 589 813 C591.3906412 808.366402 591.15269532 804.42194826 590.8125 799.375 C590.78091797 798.611875 590.74933594 797.84875 590.71679688 797.0625 C590.4829609 792.77915931 590.4829609 792.77915931 588.57421875 789.0390625 C580.09336386 783.44127739 565.03057855 785.85327967 555.1015625 785.8671875 C553.37779731 785.86651143 551.65403221 785.8655389 549.93026733 785.86428833 C546.32801399 785.86282166 542.72578558 785.86492989 539.12353516 785.86962891 C534.57385852 785.87528344 530.02424098 785.87198254 525.47456646 785.86617565 C503.74131753 785.7586209 503.74131753 785.7586209 482.02734375 786.51171875 C471.86083154 787.10394463 461.70699297 787.06181848 451.52734375 787.02734375 C450.65524261 787.02467247 449.78314148 787.02200119 448.88461304 787.01924896 C440.70580771 786.99281302 432.52708611 786.95348001 424.34838867 786.90405273 C419.82969791 786.87728057 415.31105444 786.86024397 410.79229927 786.84918404 C409.08547739 786.84299879 407.37866468 786.83302445 405.67188835 786.81910515 C403.30194824 786.79988815 400.93226337 786.79299544 398.56225586 786.78881836 C397.86673615 786.78005676 397.17121643 786.77129517 396.45462036 786.76226807 C392.52457806 786.7701751 389.5411014 787.27639658 386 789 C386.28027699 795.16609369 388.68111352 799.59498876 391.51953125 805.015625 C393.10785081 808.21740901 394.17837587 811.36745077 395.21875 814.7734375 C396.4297963 818.22491946 398.11990632 821.40617654 399.81640625 824.640625 C401.02456353 827.04896493 402.03287828 829.4863749 403 832 C403.66 832 404.32 832 405 832 C405 832.66 405 833.32 405 834 C409.92262094 832.05384754 412.17355607 829.86578142 414.921875 825.5234375 C416 824 416 824 418 823 C418.68979599 821.34277228 419.35273288 819.67429612 420 818 C420.93160154 816.36775105 421.9113261 814.76201109 422.9375 813.1875 C423.44152344 812.39730469 423.94554687 811.60710938 424.46484375 810.79296875 C425.22474609 809.90544922 425.22474609 809.90544922 426 809 C426.99 809 427.98 809 429 809 C429 808.01 429 807.02 429 806 C429.639375 805.855625 430.27875 805.71125 430.9375 805.5625 C432.97545146 805.18992819 432.97545146 805.18992819 434 804 C448.948128 802.29944049 469.07365324 800.03682662 483 807 C484.18154896 809.75694758 484.04510094 810.86770391 483.0625 813.75 C482.711875 814.4925 482.36125 815.235 482 816 C481.34 816 480.68 816 480 816 C480 816.66 480 817.32 480 818 C479.34 818.66 478.68 819.32 478 820 C478 820.66 478 821.32 478 822 C476.33333333 823.66666667 474.66666667 825.33333333 473 827 C471.27942018 829.54900714 470.04566808 831.88180027 468.9375 834.75 C468 837 468 837 466 838 C464.90833725 839.93330603 464.90833725 839.93330603 464 842 C463.67 842.66 463.34 843.32 463 844 C462.34 844 461.68 844 461 844 C461 844.66 461 845.32 461 846 C460.01490068 847.01468188 459.01155952 848.01169472 458 849 C456.90358448 850.49656717 455.84217739 852.01925512 454.8125 853.5625 C454.01779297 854.74005859 454.01779297 854.74005859 453.20703125 855.94140625 C451.83139883 857.88982225 451.83139883 857.88982225 452 860 C450.88625 861.0828125 450.88625 861.0828125 449.75 862.1875 C447.15712195 864.83930709 445.69365554 867.08605062 443.9765625 870.296875 C442.57784688 872.73623504 440.7606749 874.81433461 439 877 C438.67 877.99 438.34 878.98 438 880 C437.34 880 436.68 880 436 880 C433.90221985 892.45718831 441.51889599 901.11451709 448.3125 910.75 C448.86550781 911.51828125 449.41851563 912.2865625 449.98828125 913.078125 C452.78510957 917.14031448 455.38364611 921.32001921 458 925.5 C462.69879771 933.00174391 462.69879771 933.00174391 467.6875 940.3125 C470.47557469 944.24616974 473.24472455 948.18795962 475.9375 952.1875 C476.3399292 952.75831299 476.7423584 953.32912598 477.15698242 953.91723633 C479.91617944 958.07497165 480.4075148 961.06593614 480 966 C478.35 966 476.7 966 475 966 C475 966.66 475 967.32 475 968 C473.68 968.33 472.36 968.66 471 969 C469.35419486 975.55653182 470.98070933 979.82466348 473.5625 985.9375 C473.89830078 986.79279297 474.23410156 987.64808594 474.58007812 988.52929688 C476.66635489 993.62260943 479.11893677 997.7681418 482.53442383 1002.07250977 C484.89973411 1005.18330848 486.70746115 1008.56913519 488.5625 1012 C489.33584036 1013.40311586 490.11056497 1014.80546972 490.88671875 1016.20703125 C491.43271729 1017.19437256 491.43271729 1017.19437256 491.98974609 1018.20166016 C493.87021011 1021.54904971 495.92739828 1024.76917967 498 1028 C498.495 1028.845625 498.99 1029.69125 499.5 1030.5625 C501.51038988 1033.82938355 503.74748179 1036.8951776 506 1040 C510.31180732 1039.51594564 512.0589554 1038.37995134 514.8125 1035.0625 C515.41707031 1034.35222656 516.02164063 1033.64195313 516.64453125 1032.91015625 C518.19290374 1031.11852575 518.19290374 1031.11852575 518 1029 C518.7425 1028.278125 519.485 1027.55625 520.25 1026.8125 C523.30142598 1023.69172343 524.96946943 1020.83544663 527 1017 C527.66 1017 528.32 1017 529 1017 C529.226875 1016.278125 529.45375 1015.55625 529.6875 1014.8125 C531.34971181 1011.25061754 532.86528032 1009.40106189 536 1007 C542.03764298 1005.62989009 548.4700187 1005.86397587 554.62890625 1005.90234375 C555.50401352 1005.9037587 556.37912079 1005.90517365 557.28074646 1005.90663147 C560.04136762 1005.91217281 562.80190388 1005.92471388 565.5625 1005.9375 C567.44856653 1005.9425226 569.33463434 1005.94708417 571.22070312 1005.95117188 C575.81383417 1005.96212293 580.40690275 1005.97934616 585 1006 C586.71504054 1009.21826332 587.47322581 1011.30883867 587 1015 C585.5625 1016.5625 585.5625 1016.5625 584 1018 C583.87109375 1018.63164063 583.7421875 1019.26328125 583.609375 1019.9140625 C582.8458151 1022.52778678 581.84907871 1023.20635908 579.6875 1024.8125 C577.11020486 1026.88690829 575.44814776 1028.61801708 573.9375 1031.5625 C572.22203847 1034.60606078 571.36342294 1035.72139898 568.75 1037.75 C567.8425 1038.4925 566.935 1039.235 566 1040 C566 1040.99 566 1041.98 566 1043 C565.01 1043.66 564.02 1044.32 563 1045 C561.8499169 1046.96672915 561.8499169 1046.96672915 561 1049 C560.67 1049.66 560.34 1050.32 560 1051 C559.34 1051 558.68 1051 558 1051 C557.731875 1051.53625 557.46375 1052.0725 557.1875 1052.625 C555.79166667 1055.41666667 554.39583333 1058.20833333 553 1061 C552.34 1061 551.68 1061 551 1061 C550.773125 1061.515625 550.54625 1062.03125 550.3125 1062.5625 C548.20136617 1066.48317712 545.7122788 1070.38742351 542.45703125 1073.453125 C540.03008889 1076.02971797 539.26696428 1078.40440669 538.640625 1081.859375 C539.4088856 1088.5733046 544.50683726 1093.90979442 548.54003906 1099.109375 C550.51565949 1101.66777041 552.37768808 1104.30294252 554.25 1106.9375 C557.16480491 1110.91277256 560.17052181 1114.80711092 563.21484375 1118.68359375 C565.92296083 1122.19762751 568.51013255 1125.79678986 571.10546875 1129.39453125 C572.66526634 1131.53965495 574.25704603 1133.64893865 575.875 1135.75 C579.26540521 1140.23017831 582.32388139 1144.9336608 585.39794922 1149.63378906 C587.2586193 1152.46342019 589.11965525 1155.14739539 591.2578125 1157.78125 C593.18133146 1160.23093334 593.65005093 1161.93794566 594 1165 C593.01 1165 592.02 1165 591 1165 C591 1165.66 591 1166.32 591 1167 C576.42477468 1169.15075789 576.42477468 1169.15075789 570.875 1169 C567.24135614 1169 565.07184664 1169.08009585 562 1171 C560.8139479 1172.73966377 560.8139479 1172.73966377 561 1175 C562.20679176 1177.83354526 562.20679176 1177.83354526 564 1181 C564.65775638 1182.45299462 565.30284489 1183.91176738 565.9375 1185.375 C567.21195301 1188.27765154 568.54834218 1191.11957601 570 1193.9375 C571.3949717 1196.68468565 572.58733685 1199.43515022 573.6875 1202.3125 C576.07551256 1208.47511305 579.00347174 1214.38313909 581.91479492 1220.31176758 C585.48353579 1227.68446007 585.48353579 1227.68446007 586 1232 C586.66 1232 587.32 1232 588 1232 C588.350625 1233.19625 588.70125 1234.3925 589.0625 1235.625 C590.91320452 1241.22138879 593.58226029 1246.3498982 596.28125 1251.5703125 C597.99847869 1254.9969643 599.49990576 1258.47396326 601 1262 C601.81802004 1263.65349782 602.65002118 1265.30020106 603.5 1266.9375 C605.35123986 1270.59024492 606.88372332 1274.22213728 608.2578125 1278.07421875 C609.30924682 1280.80241411 610.64005284 1283.35937901 611.9765625 1285.95703125 C612.99398443 1287.98799181 613.91081699 1290.0403397 614.8125 1292.125 C616.58351783 1296.18006861 618.55765412 1300.11954954 620.5625 1304.0625 C622.68317065 1308.2421971 624.59397999 1312.37820458 626.125 1316.80859375 C627.87243844 1321.18499091 630.13207899 1325.34521541 632.28125 1329.53515625 C633.98966997 1332.97917559 635.50557963 1336.45837622 637 1340 C637.97678267 1342.21911848 638.96367616 1344.43357908 639.95117188 1346.64794922 C640.64710567 1348.2086164 641.3411354 1349.77013412 642.03320312 1351.33251953 C646.26527304 1360.88631849 650.59493065 1370.35842349 655.32226562 1379.67822266 C657.71047512 1384.39045549 659.92190843 1389.14473537 662 1394 C664.6898741 1400.15682293 667.50130596 1406.25369447 670.36254883 1412.33251953 C672.25705438 1416.36786498 674.08461441 1420.42886166 675.88867188 1424.50537109 C678.05743294 1429.37364891 680.28122603 1434.21686693 682.5 1439.0625 C683.20962891 1440.61807617 683.20962891 1440.61807617 683.93359375 1442.20507812 C686.25379776 1447.27289215 688.62757752 1452.29605931 691.14648438 1457.26782227 C692.38313668 1459.77756142 693.44771608 1462.34589534 694.5 1464.9375 C697.60366418 1472.47902545 700.89532533 1479.84303525 704.57421875 1487.12109375 C706.30741577 1490.62072719 707.97267603 1494.1491108 709.625 1497.6875 C709.91415283 1498.30512207 710.20330566 1498.92274414 710.5012207 1499.55908203 C711.88017639 1502.52286679 713.21039598 1505.49719892 714.484375 1508.5078125 C716.0623909 1512.14375636 717.81830441 1515.66256115 719.625 1519.1875 C722.89626711 1525.67160483 726.03028808 1532.213226 729.0625 1538.8125 C729.46871582 1539.67834717 729.87493164 1540.54419434 730.29345703 1541.4362793 C730.66196777 1542.24750244 731.03047852 1543.05872559 731.41015625 1543.89453125 C731.74152588 1544.61487549 732.07289551 1545.33521973 732.41430664 1546.07739258 C733 1548 733 1548 732 1551 C726.72 1551 721.44 1551 716 1551 C716 1551.66 716 1552.32 716 1553 C715.34 1553 714.68 1553 714 1553 C714 1552.34 714 1551.68 714 1551 C713.34 1551 712.68 1551 712 1551 C708.114478 1543.58041026 704.69475694 1535.96169438 701.29907227 1528.30957031 C699.25650301 1523.72284223 697.12166052 1519.21115543 694.85083008 1514.73339844 C693.80238814 1512.59740482 692.94602103 1510.41989528 692.125 1508.1875 C690.25958831 1503.39494031 687.88466543 1499.00742762 685.37890625 1494.5234375 C683.30593777 1490.72984646 681.69318406 1486.80417769 680.14453125 1482.7734375 C677.93785323 1477.09912258 675.40196729 1471.69849886 672.640625 1466.2734375 C668.21459908 1457.44246198 664.18003816 1448.41606494 660.1171875 1439.4140625 C659.10482402 1437.22650784 658.03917035 1435.08106013 656.9375 1432.9375 C655.53063957 1430.17382557 654.35405493 1427.39754154 653.25 1424.5 C651.45590094 1419.89065458 649.30466914 1415.5270426 647.0625 1411.125 C644.22964831 1405.55695886 641.67375175 1399.96743744 639.33203125 1394.171875 C636.14096466 1386.57320617 632.46914337 1379.17770527 628.92236328 1371.74023438 C622.05109611 1357.31712928 622.05109611 1357.31712928 620 1351.9375 C618.35217714 1347.65171511 616.33088229 1343.58781709 614.25 1339.5 C610.15230552 1331.4488622 606.48343167 1323.23804853 602.86230469 1314.96386719 C600.42964367 1309.42357125 597.913374 1303.92211186 595.31640625 1298.45703125 C592.51429463 1292.55480808 589.82144255 1286.70043481 587.5625 1280.5625 C584.64368255 1272.74045456 580.8229707 1265.40840154 577 1258 C574.35332975 1252.85647103 571.85909343 1247.73926722 569.6875 1242.375 C567.37157293 1236.68778669 564.66290725 1231.2621757 561.87841797 1225.79589844 C559.63984726 1221.36985136 557.68469776 1216.92025727 555.921875 1212.28125 C554.57559172 1208.94976934 552.90902456 1205.80025178 551.26953125 1202.60546875 C549.96247849 1199.92299432 548.85087778 1197.21050143 547.75 1194.4375 C545.60527613 1189.19785813 543.13310705 1184.19376805 540.5 1179.1875 C539.94844238 1178.12970337 539.94844238 1178.12970337 539.38574219 1177.05053711 C537.22699447 1173.00455526 534.85342743 1169.29013788 532.13818359 1165.59692383 C530.58111557 1163.41228592 529.31629845 1161.11949735 528.0625 1158.75 C527.30259766 1157.33267578 527.30259766 1157.33267578 526.52734375 1155.88671875 C525.53747807 1154.0158473 524.55032605 1152.14353655 523.56640625 1150.26953125 C516.53438692 1136.72323437 516.53438692 1136.72323437 506 1126 C504.67823515 1126.90325616 503.36784934 1127.82317903 502.0625 1128.75 C501.33160156 1129.26046875 500.60070313 1129.7709375 499.84765625 1130.296875 C497.74638261 1132.2337784 497.53325533 1133.26706641 497 1136 C496.319375 1136.66 495.63875 1137.32 494.9375 1138 C492.53613652 1140.01472954 492.53613652 1140.01472954 493 1144 C492.34 1144 491.68 1144 491 1144 C491 1144.66 491 1145.32 491 1146 C490.34 1146 489.68 1146 489 1146 C489 1146.66 489 1147.32 489 1148 C488.34 1148 487.68 1148 487 1148 C486.896875 1148.5775 486.79375 1149.155 486.6875 1149.75 C485.88943195 1152.36185908 484.68532121 1153.86093846 483 1156 C482.54625 1156.804375 482.0925 1157.60875 481.625 1158.4375 C478.60680002 1163.19696921 475.42247919 1166.37777498 470 1168 C466.83327168 1168.30722133 463.67997996 1168.32786926 460.5 1168.3359375 C459.58669922 1168.3425943 458.67339844 1168.3492511 457.73242188 1168.35610962 C455.80601001 1168.3662116 453.87956332 1168.3709274 451.953125 1168.37060547 C449.00983113 1168.37498537 446.06802949 1168.41134889 443.125 1168.44921875 C441.25000511 1168.45508612 439.37500313 1168.45905605 437.5 1168.4609375 C436.62279297 1168.47530853 435.74558594 1168.48967957 434.84179688 1168.50448608 C430.59420189 1168.47278064 428.54852515 1168.35970991 424.90625 1165.97119141 C424.2771875 1165.32069824 423.648125 1164.67020508 423 1164 C423.75 1159.25 423.75 1159.25 426 1157 C426.66 1156.67 427.32 1156.34 428 1156 C428.26039063 1155.30648438 428.52078125 1154.61296875 428.7890625 1153.8984375 C430.41524832 1150.00608306 432.82716861 1146.96400008 435.375 1143.625 C438.96440347 1138.90311094 442.15805601 1134.21247548 445 1129 C445.66 1129 446.32 1129 447 1129 C447.226875 1127.948125 447.45375 1126.89625 447.6875 1125.8125 C448.81013226 1121.8227134 450.87778828 1119.73193526 454 1117 C456.15065784 1115.21266773 456.15065784 1115.21266773 456.4375 1112.9375 C456.623125 1112.298125 456.80875 1111.65875 457 1111 C457.99 1110.67 458.98 1110.34 460 1110 C461.82130191 1107.90771811 461.82130191 1107.90771811 463.5625 1105.4375 C464.66117779 1103.92297857 465.79790775 1102.43382087 467 1101 C467.66 1101 468.32 1101 469 1101 C469.103125 1100.278125 469.20625 1099.55625 469.3125 1098.8125 C470.06782523 1095.72253314 471.19137976 1093.60441314 473 1091 C473.66 1090.67 474.32 1090.34 475 1090 C475.75981162 1082.70580847 474.33383708 1078.78891765 470 1073 C469.38382813 1072.13246094 468.76765625 1071.26492188 468.1328125 1070.37109375 C465.07417151 1066.09256676 461.93571218 1061.88621263 458.6875 1057.75 C451.43135804 1048.50587394 444.62678231 1038.89717979 437.75390625 1029.3671875 C435.11711743 1025.80840349 432.39790428 1022.42632601 429.375 1019.1875 C426.52048063 1015.35643453 425.88106959 1012.64563966 425 1008 C429.33901483 1004.72865614 433.02995423 1004.70332972 438.25 1004.9375 C444.51593706 1005.09309214 449.93185432 1004.76527874 456 1003 C456.85381935 1000.07410685 457.17289125 998.47165945 456.109375 995.5703125 C455.66078125 994.76335938 455.2121875 993.95640625 454.75 993.125 C453.18312879 990.21509632 451.76687218 987.43660777 450.5 984.375 C446.97064673 976.43395514 444.13693917 972.29453732 436 969 C423.95167573 963.94315166 418.41353678 956.0794812 411.8203125 945.0390625 C408.11546182 938.15771773 408.11546182 938.15771773 402 934 C397.90088751 936.15550479 393.92944577 938.97211832 391.96875 943.25 C391.34205518 945.6464301 391.34205518 945.6464301 391 949 C390.34 949 389.68 949 389 949 C388.938125 950.0209375 388.938125 950.0209375 388.875 951.0625 C387.64701039 955.18503653 385.15076207 958.09996171 382 961 C381.34 961 380.68 961 380 961 C380 961.66 380 962.32 380 963 C376.64557831 967.23029846 372.09569096 967.39210466 367 968 C362.32902846 968.26444714 357.67739261 968.27998329 353 968.25 C351.7934375 968.25773437 350.586875 968.26546875 349.34375 968.2734375 C331.23406863 968.23406863 331.23406863 968.23406863 327 964 C326.43479997 961.34462628 326.26211802 958.70855287 326 956 C326.66 956 327.32 956 328 956 C328.26941406 955.26652344 328.53882813 954.53304687 328.81640625 953.77734375 C329.96121929 951.09100029 331.26658364 948.94770122 332.9375 946.5625 C335.28291615 943.13326074 337.26065595 939.76857878 339 936 C339.66 936 340.32 936 341 936 C341.24621094 935.4534375 341.49242187 934.906875 341.74609375 934.34375 C343.81084912 930.48439417 346.5801142 927.13503954 349.22265625 923.65625 C350.84317886 921.23437005 351.38587801 919.76056776 352 917 C353.64488294 915.31183067 355.31337542 913.64646685 357 912 C358.03357147 910.35394174 359.04060332 908.69036558 360 907 C360.66 906.34 361.32 905.68 362 905 C363.04566779 903.53828402 364.0638783 902.05675213 365.0625 900.5625 C365.85333984 899.38880859 365.85333984 899.38880859 366.66015625 898.19140625 C368.13955114 895.95646365 368.13955114 895.95646365 369 893 C369.66 893 370.32 893 371 893 C366.65117923 876.18455968 353.00350329 861.33812205 343.13134766 847.3527832 C340.19992039 843.18542164 337.30651824 839.02191176 334.625 834.6875 C331.91912705 830.39605896 329.12494765 826.17913801 326.25 822 C325.51265625 820.9275 324.7753125 819.855 324.015625 818.75 C322.43036408 816.5871634 320.91061367 814.84679076 319 813 C316.37770207 822.17705394 315.57768371 830.85061718 315.71875 840.32299805 C315.75032734 842.45964882 315.75978192 844.59555902 315.765625 846.73242188 C315.80458239 852.60091052 316.01172445 858.20520005 317 864 C317.08691867 865.87350742 317.13055206 867.74947879 317.1328125 869.625 C317.13410156 870.66140625 317.13539063 871.6978125 317.13671875 872.765625 C317.13285156 873.83296875 317.12898438 874.9003125 317.125 876 C317.12886719 877.06734375 317.13273437 878.1346875 317.13671875 879.234375 C317.13040888 884.307508 316.8341945 888.99483302 316 894 C316.01740408 896.88472671 316.22614046 899.7488048 316.4375 902.625 C317.62085308 921.08530806 317.62085308 921.08530806 316 930 C315.62304645 935.14818262 315.62304645 935.14818262 317 940 C316.90949896 941.6290187 316.75272131 943.25459628 316.5625 944.875 C315.99402771 950.12990235 316.05715755 955.19627297 316.35546875 960.46875 C316 963 316 963 314.23828125 964.76953125 C307.39160065 968.53341325 299.43134468 968.19797766 291.8125 968.25 C290.95720703 968.25926514 290.10191406 968.26853027 289.22070312 968.27807617 C281.33093744 968.23899516 276.21702667 967.10115008 270 962 C266.82078213 960.74443113 266.82078213 960.74443113 264 960 C263.54625 960.66 263.0925 961.32 262.625 962 C262.08875 962.66 261.5525 963.32 261 964 C260.34 964 259.68 964 259 964 C258.67 964.99 258.34 965.98 258 967 C256.35 967.33 254.7 967.66 253 968 C252.67 968.99 252.34 969.98 252 971 C245.86999038 974.187605 239.86045912 975.87103431 233 974 C233 974.66 233 975.32 233 976 C230.68756208 976.02685412 228.3750373 976.04632841 226.0625 976.0625 C224.77472656 976.07410156 223.48695313 976.08570313 222.16015625 976.09765625 C219 976 219 976 218 975 C216.43867691 974.8029398 214.87584736 974.61779845 213.3125 974.4375 C202.6438544 972.56459082 193.4341362 966.08918988 185.8671875 958.56640625 C183.79471598 956.82778475 182.7030271 956.13981175 180 956 C177.69802041 957.0774224 177.69802041 957.0774224 175.5 958.75 C174.7471875 959.28109375 173.994375 959.8121875 173.21875 960.359375 C171.83677454 961.38125826 170.46064103 962.41115069 169.09375 963.453125 C155.38318312 973.58257367 140.11756576 977.70964308 123.01171875 975.62890625 C105.97816756 972.07196495 94.47767742 962.21651613 85 948 C84.61981954 946.20047914 84.31651044 944.38411774 84.0625 942.5625 C83.43376456 938.38590032 82.60319258 934.43228923 81.4375 930.375 C80.06944458 925.1250005 79.55633316 920.02105036 79.25 914.625 C79.18317017 913.48297119 79.18317017 913.48297119 79.11499023 912.31787109 C78.92284308 908.03209252 79.29081842 904.24286223 80 900 C79.67041755 898.66573455 79.3366423 897.33250173 79 896 C78.91110816 894.44114556 78.87213847 892.87901306 78.87060547 891.31762695 C78.86745331 890.39178299 78.86430115 889.46593903 78.86105347 888.51203918 C78.86408981 887.01527901 78.86408981 887.01527901 78.8671875 885.48828125 C78.86575241 883.92583931 78.86575241 883.92583931 78.86428833 882.33183289 C78.86360748 880.12022847 78.86545517 877.90862206 78.86962891 875.69702148 C78.87490838 872.37023195 78.86971747 869.04358181 78.86328125 865.71679688 C78.86082161 855.627535 78.98239473 845.6019323 79.6824646 835.53569031 C80.05061911 830.01350176 79.90511872 824.63711941 79.5 819.125 C79.10356298 812.70563522 79.03578014 806.63336882 79.7890625 800.23046875 C80.13909176 796.52923344 79.90640068 793.62560272 79 790 C69.25035139 782.72682464 51.41024542 785.85425214 39.75 785.8671875 C37.60196929 785.86651287 35.45393865 785.86554152 33.3059082 785.86428833 C28.82779201 785.86282137 24.34969588 785.86493524 19.87158203 785.86962891 C14.13052798 785.8753533 8.38952041 785.8720238 2.64846802 785.86605644 C-1.77639112 785.86244725 -6.20123917 785.8635906 -10.62609863 785.86618423 C-12.74401861 785.86685108 -14.8619396 785.86603354 -16.9798584 785.86370468 C-19.93060997 785.86116931 -22.88128536 785.86503007 -25.83203125 785.87060547 C-26.70581924 785.86858124 -27.57960724 785.86655701 -28.47987366 785.86447144 C-29.28420334 785.86729126 -30.08853302 785.87011108 -30.91723633 785.87301636 C-31.61327469 785.87339338 -32.30931305 785.87377041 -33.02644348 785.87415886 C-35.02984131 785.93810706 -35.02984131 785.93810706 -37.02598572 786.53476143 C-39.70245891 787.16555654 -42.09287429 786.65333582 -44.78259277 786.2666626 C-48.62443762 785.80464718 -52.46327897 785.85762223 -56.328125 785.8671875 C-57.19838318 785.86623077 -58.06864136 785.86527405 -58.965271 785.86428833 C-60.79732333 785.86361154 -62.62937813 785.86543067 -64.46142578 785.86962891 C-67.22824657 785.8749581 -69.99490311 785.86968022 -72.76171875 785.86328125 C-83.60707188 785.84346703 -83.60707188 785.84346703 -94.421875 786.5703125 C-98.41646918 786.97872136 -102.08933505 786.88590807 -106.08323669 786.49975586 C-114.54181795 785.84915365 -122.91414259 786.09091891 -131.3867768 786.34852791 C-150.15535491 786.90685307 -168.91694041 787.10342293 -187.69311523 787.09765625 C-188.89613443 787.0973472 -190.09915362 787.09703815 -191.33862793 787.09671974 C-198.92848272 787.09302874 -206.51831335 787.08150493 -214.10815692 787.06846237 C-220.16788452 787.05931646 -226.22761283 787.05571918 -232.28734589 787.05223143 C-244.25431252 787.04525862 -256.22127205 787.03452594 -268.18823242 787.02050781 C-268.89607441 787.01968 -269.6039164 787.01885219 -270.33320815 787.01799929 C-274.64488964 787.01293664 -278.95657102 787.00778307 -283.26825237 787.00260353 C-289.81091482 786.99475103 -296.3535774 786.98701803 -302.89624023 786.97949219 C-303.61499804 786.97866406 -304.33375585 786.97783593 -305.0742942 786.97698271 C-317.05956383 786.9632979 -329.04483362 786.95354516 -341.03010899 786.94658184 C-349.02981536 786.9417252 -357.02949204 786.93178563 -365.02918899 786.91815186 C-369.97778776 786.91070098 -374.92638303 786.90737906 -379.87498665 786.9051857 C-382.16675654 786.9033132 -384.45852576 786.89971127 -386.75028992 786.89425278 C-389.87642525 786.88703929 -393.00250461 786.88599883 -396.12864685 786.88647461 C-397.03405273 786.88287965 -397.93945862 786.87928469 -398.87230104 786.87558079 C-402.62971545 786.88171028 -406.25129335 786.96785339 -409.96754551 787.54933167 C-413 788 -413 788 -415.390625 787.32421875 C-417 786 -417 786 -417.609375 784.08203125 C-417.65578125 783.33308594 -417.7021875 782.58414063 -417.75 781.8125 C-417.83507812 780.61367187 -417.83507812 780.61367187 -417.921875 779.390625 C-418.0241774 776.26017148 -418 773.13186267 -418 770 C-418.33 769.34 -418.66 768.68 -419 768 C-418.34 768 -417.68 768 -417 768 C-417 766.68 -417 765.36 -417 764 C-416.34515625 764.00523682 -415.6903125 764.01047363 -415.015625 764.01586914 C-412.01042667 764.036827 -409.00524379 764.0497195 -406 764.0625 C-404.97003906 764.07087891 -403.94007813 764.07925781 -402.87890625 764.08789062 C-401.86699219 764.09111328 -400.85507812 764.09433594 -399.8125 764.09765625 C-398.89082031 764.10289307 -397.96914063 764.10812988 -397.01953125 764.11352539 C-394.03468538 764.00130407 -391.13891277 763.62049981 -388.18054199 763.22807312 C-384.20490277 762.81224236 -380.22794343 762.85780548 -376.234375 762.8671875 C-375.31972473 762.86623077 -374.40507446 762.86527405 -373.46270752 762.86428833 C-371.53649832 762.86361126 -369.61028678 762.86543238 -367.68408203 762.86962891 C-364.77240731 762.87495898 -361.86088858 762.86968052 -358.94921875 762.86328125 C-350.4043946 762.8604444 -341.92377581 762.87184181 -333.41577148 763.7734375 C-327.54099996 764.32440142 -321.71021074 764.22794829 -315.86187744 763.49780273 C-311.33735112 762.98802422 -306.89581806 762.87080758 -302.34667969 762.90234375 C-301.53409698 762.90380402 -300.72151428 762.90526428 -299.88430786 762.9067688 C-298.13779837 762.91054515 -296.39129258 762.9166297 -294.64479828 762.92483521 C-291.8786899 762.93770086 -289.11262996 762.94413972 -286.34649658 762.94897461 C-280.48097581 762.96034659 -274.61549543 762.9796062 -268.75 763 C-261.93574559 763.02363068 -255.12151385 763.0439959 -248.30722809 763.05593872 C-245.58570792 763.0624077 -242.86425823 763.07491098 -240.14276123 763.08764648 C-238.4737555 763.09127912 -236.80474913 763.09463083 -235.13574219 763.09765625 C-234.00572281 763.10540573 -234.00572281 763.10540573 -232.85287476 763.11331177 C-229.09315333 763.11369005 -225.66412895 762.8234091 -222 762 C-219.39453125 762.15625 -219.39453125 762.15625 -216.8125 762.5 C-213.27583262 763.08126534 -213.27583262 763.08126534 -210 762 C-208.14212342 761.90384197 -206.28077294 761.87204019 -204.42041016 761.87060547 C-203.25224762 761.86745331 -202.08408508 761.86430115 -200.88052368 761.86105347 C-199.61284149 761.8630777 -198.3451593 761.86510193 -197.0390625 761.8671875 C-195.74181244 761.86623077 -194.44456238 761.86527405 -193.10800171 761.86428833 C-190.35909844 761.86281272 -187.61022763 761.86496083 -184.86132812 761.86962891 C-181.34180415 761.87531489 -177.82235661 761.87205353 -174.30283546 761.86605644 C-170.94407174 761.86156704 -167.5853284 761.86471405 -164.2265625 761.8671875 C-162.96292877 761.86516327 -161.69929504 761.86313904 -160.39736938 761.86105347 C-159.22290253 761.86420563 -158.04843567 761.86735779 -156.83837891 761.87060547 C-155.8051651 761.87140106 -154.77195129 761.87219666 -153.70742798 761.87301636 C-151 762 -151 762 -149.21612072 762.51521301 C-146.34864146 763.14248779 -143.76824081 763.00699978 -140.8346405 762.88357544 C-139.57163022 762.83583921 -138.30861994 762.78810299 -137.00733662 762.73892021 C-136.32830331 762.71139286 -135.64927001 762.6838655 -134.94965994 762.65550399 C-121.42559287 762.11833146 -107.91027656 761.89006692 -94.3762207 761.87060547 C-93.52640731 761.86932089 -92.67659392 761.86803631 -91.80102861 761.86671281 C-86.4393213 761.86035301 -81.0776359 761.8618399 -75.71592736 761.8656745 C-70.9462938 761.86826091 -66.17666186 761.86584455 -61.4070282 761.86428833 C-53.43777105 761.8624893 -45.46852329 761.86481748 -37.49926758 761.86962891 C-28.30160005 761.87511798 -19.10395453 761.8732665 -9.90628749 761.8678025 C-1.94890445 761.86326634 6.00847198 761.86262178 13.9658559 761.86524117 C18.69396853 761.8667947 23.42207077 761.86702209 28.15018272 761.86370468 C32.57052717 761.86081692 36.99084296 761.86281827 41.41118431 761.86859894 C43.02931165 761.86991949 44.64744141 761.86954439 46.26556778 761.86733627 C48.47535139 761.86459836 50.68504337 761.86803755 52.89482117 761.87301636 C54.12956523 761.87339338 55.36430929 761.87377041 56.63646984 761.87415886 C59.84623861 761.99424726 62.83968712 762.45992389 66 763 C69.15589881 762.71183343 69.15589881 762.71183343 72.25 761.9375 C73.28640625 761.71964844 74.3228125 761.50179687 75.390625 761.27734375 C78.24264971 760.23196058 78.24264971 760.23196058 79.14931583 757.33525848 C80.03640549 753.85726581 80.23830125 750.9432884 80.22032166 747.35852051 C80.21991381 746.71650963 80.21950596 746.07449876 80.21908575 745.41303301 C80.21537476 743.27585925 80.19737723 741.13905116 80.17944336 739.00195312 C80.17396425 737.46402782 80.16941576 735.92609897 80.16572571 734.38816833 C80.1560327 731.0831442 80.14022219 727.77822616 80.11976433 724.47325134 C80.08789345 719.24557012 80.07244271 714.01791932 80.05970764 708.79016113 C80.02565652 695.80720804 79.97296011 682.82433869 79.9105835 669.8414917 C79.86211744 659.74723028 79.82003756 649.653044 79.79907519 639.55868292 C79.78756122 634.36350681 79.76216498 629.16864194 79.72632778 623.97357941 C79.70711663 620.7403533 79.70045283 617.50719028 79.69726372 614.27391243 C79.69324975 612.77672566 79.68407247 611.27954229 79.66930008 609.78242302 C79.64983037 607.73520302 79.64902067 605.68877026 79.6526947 603.64147949 C79.64733169 602.49703117 79.64196867 601.35258286 79.63644314 600.17345428 C80.05645147 596.50724036 81.06375252 594.12892271 83 591 C88.44233089 587.77902866 93.76032882 587.26956648 100 587 C100.64888184 586.96745117 101.29776367 586.93490234 101.96630859 586.90136719 C119.05979643 586.12882425 119.05979643 586.12882425 126 591 C126.52464844 591.54011719 127.04929687 592.08023438 127.58984375 592.63671875 C128.93521966 594.25340598 128.93521966 594.25340598 131.1875 594 C134.49924985 592.82248894 137.14023996 591.12808884 140.06640625 589.203125 C142.278946 587.8264336 144.5815797 586.95271103 147 586 C147.33 585.34 147.66 584.68 148 584 C163.13090359 578.32072934 182.57485864 577.41148065 197.60546875 584.171875 C199.49632653 585.35686131 201.23294977 586.64040067 203 588 C204.11375 588.5775 205.2275 589.155 206.375 589.75 C217.15866141 595.86978954 224.13209679 605.62082024 230.25 616.0625 C230.5917627 616.6402417 230.93352539 617.2179834 231.28564453 617.81323242 C233.5387882 621.77223149 234.84261081 625.61026263 236 630 C236.53625 631.175625 237.0725 632.35125 237.625 633.5625 C239.04223342 637.10558355 239.15989443 639.24248081 239 643 C239.15082031 643.89074219 239.30164062 644.78148437 239.45703125 645.69921875 C240.06205888 649.37726441 240.34653933 653.03378796 240.5625 656.75 C240.6042334 657.45664795 240.6459668 658.1632959 240.68896484 658.89135742 C241.20262336 668.06278266 240.97240936 676.86629783 240 686 C239.34 686 238.68 686 238 686 C238.226875 686.825 238.45375 687.65 238.6875 688.5 C239.03881085 692.43468153 238.31878621 694.43102155 236.828125 697.98828125 C235.62224524 700.91765896 234.84707078 703.95054519 234 707 C232.67245155 711.27897312 231.04578053 715.23297379 229.0625 719.25 C228.55847656 720.28640625 228.05445313 721.3228125 227.53515625 722.390625 C226 725 226 725 223 727 C222.01 727 221.02 727 220 727 C219.67 728.65 219.34 730.3 219 732 C218.34 732 217.68 732 217 732 C217 732.66 217 733.32 217 734 C216.34 734 215.68 734 215 734 C215 734.66 215 735.32 215 736 C211.69195214 739.79452548 208.53020913 741.88590241 204 744 C203.34 744.66 202.68 745.32 202 746 C200.01643517 746.71408334 198.01684563 747.38617742 196 748 C196 748.66 196 749.32 196 750 C185.01696853 752.61723303 173.14898665 755.116921 162 752 C160.081875 751.814375 160.081875 751.814375 158.125 751.625 C154.21300697 751.1503832 151.46637966 749.94117261 148 748 C146.31974365 747.09065286 144.63158129 746.19582451 142.9375 745.3125 C142.12152344 744.87550781 141.30554687 744.43851563 140.46484375 743.98828125 C137.76818228 742.90705248 135.8785651 742.73559107 133 743 C130.42406785 745.57593215 130.23618711 750.53067383 130 754 C131.14207333 757.63009888 131.14207333 757.63009888 134 760 C136.69147719 761.06256715 139.11276581 761.49587974 142 762 C142.99 762.33 143.98 762.66 145 763 C146.75465153 762.93769421 148.50721297 762.80317566 150.25390625 762.625 C151.27291016 762.52703125 152.29191406 762.4290625 153.34179688 762.328125 C154.40462891 762.21984375 155.46746094 762.1115625 156.5625 762 C158.66743356 761.78632699 160.77289081 761.57773233 162.87890625 761.375 C163.8129126 761.27960937 164.74691895 761.18421875 165.70922852 761.0859375 C168 761 168 761 170 762 C171.37061754 762.08951802 172.74551733 762.11758307 174.11904907 762.11352539 C175.41371849 762.11341965 175.41371849 762.11341965 176.73454285 762.11331177 C178.15879326 762.10556229 178.15879326 762.10556229 179.61181641 762.09765625 C180.61053268 762.09619598 181.60924896 762.09473572 182.63822937 762.0932312 C184.81482051 762.08941692 186.99140851 762.08329173 189.16798782 762.07516479 C192.62545642 762.06241187 196.08288664 762.05588665 199.54037476 762.05102539 C208.14158082 762.03764099 216.74275121 762.01362168 225.34393311 761.98962402 C232.58953021 761.96977274 239.83511299 761.95417188 247.08073044 761.94406128 C250.4637279 761.93764293 253.84666627 761.92512673 257.22964478 761.91235352 C267.39916435 761.88848688 277.49282845 761.98961754 287.63516235 762.77047729 C293.66882313 763.18204608 299.70484423 763.14900459 305.75 763.125 C307.03825684 763.12016602 308.32651367 763.11533203 309.65380859 763.11035156 C313.43615113 763.08677381 317.21789422 763.04800404 321 763 C322.6082666 762.98114746 322.6082666 762.98114746 324.24902344 762.96191406 C327.04250839 762.91725476 329.83272241 762.84202421 332.625 762.75 C333.8310791 762.72897217 333.8310791 762.72897217 335.06152344 762.70751953 C338.70754506 762.54687719 340.64725873 762.2861245 343.5234375 759.953125 C344.01070312 759.30859375 344.49796875 758.6640625 345 758 C344.37720331 756.41579871 343.75166599 754.83267469 343.125 753.25 C342.77695313 752.36828125 342.42890625 751.4865625 342.0703125 750.578125 C341.06284557 748.0384159 341.06284557 748.0384159 339.8671875 745.859375 C339 744 339 744 339 741 C338.34 741 337.68 741 337 741 C336.57589844 740.10539062 336.15179687 739.21078125 335.71484375 738.2890625 C329.77060501 725.12618705 329.77060501 725.12618705 320 715 C319.21625 715.495 318.4325 715.99 317.625 716.5 C315 718 315 718 313 718 C312.89558594 718.55816406 312.79117188 719.11632813 312.68359375 719.69140625 C311.86823607 722.44498562 310.59246712 724.50975267 309.0625 726.9375 C307.44259998 729.51262361 306.0607999 731.83699948 304.99609375 734.69140625 C304 737 304 737 301 739 C299.9176469 740.8831679 299.9176469 740.8831679 299 743 C298.23035874 744.38744854 297.43825984 745.76266027 296.625 747.125 C296.22539063 747.80820313 295.82578125 748.49140625 295.4140625 749.1953125 C293.16290788 752.06833304 290.98771588 752.82658423 287.44140625 753.44921875 C280.90685521 753.99007033 274.70868505 753.87273244 268.18359375 753.25390625 C264.25432452 752.94052895 260.37541274 752.96645335 256.4375 753.0625 C251.1263136 752.92631573 245.55388947 751.64767062 241.0625 748.75 C240 747 240 747 240 744.3125 C242.06046249 737.487218 246.02948093 732.97051907 251 728 C252.57389446 725.79988759 254.04726343 723.55160123 255.51171875 721.27734375 C256.87817431 719.18641569 258.31917019 717.18864801 259.8125 715.1875 C261.74900444 712.36573639 262.23241268 711.12152176 263 708 C264.33333333 706.66666667 265.66666667 705.33333333 267 704 C268.56730551 701.70648225 270.06082004 699.37768259 271.53515625 697.0234375 C273 695 273 695 276 693 C277.05747752 691.14610657 277.05747752 691.14610657 278 689 C278.94352349 687.36635647 279.90290292 685.74180396 280.875 684.125 C281.40222656 683.24457031 281.92945313 682.36414062 282.47265625 681.45703125 C283.6740223 679.52439892 284.97620577 677.65441907 286.3125 675.8125 C288.50235315 672.16274475 289.13876669 670.30176752 289 666 C286.29539251 658.55969847 282.08063363 652.52913695 277.02734375 646.515625 C272.48600324 640.88051269 268.51587296 634.80262738 266 628 C265.34 628 264.68 628 264 628 C262 625 262 625 262 622 C261.34 622 260.68 622 260 622 C258.58984375 620.05078125 258.58984375 620.05078125 256.9375 617.3125 C254.91318381 613.99842961 252.8660523 610.7637321 250.5390625 607.65625 C243.42015989 598.09475053 243.42015989 598.09475053 243.4375 593.1875 C243.623125 592.135625 243.80875 591.08375 244 590 C249.87883349 587.38718512 255.70731728 587.81671798 262 588 C262 587.34 262 586.68 262 586 C262.66 586 263.32 586 264 586 C264.71265458 578.44586146 262.33886396 573.67772791 259 567 C257.59159337 564.06844893 256.20304325 561.12755755 254.8125 558.1875 C254.24390259 556.99253906 254.24390259 556.99253906 253.66381836 555.7734375 C250.13972781 548.3515443 246.73751565 540.87621438 243.36254883 533.38549805 C242.96704834 532.50933838 242.57154785 531.63317871 242.1640625 530.73046875 C241.79313477 529.90724121 241.42220703 529.08401367 241.04003906 528.23583984 C240.1551401 526.3335148 239.19092578 524.4684119 238.2109375 522.61328125 C237 520 237 520 237 516 C236.34 516 235.68 516 235 516 C233.08699434 511.71486733 231.18237343 507.42693062 229.31640625 503.12109375 C225.96225575 495.38831853 222.49754945 487.79278345 218.6015625 480.31640625 C215.95130642 475.14369832 213.56671396 470.02134591 211.5625 464.5625 C209.8673072 459.9838442 207.89142458 455.81851265 205.5 451.5625 C203.04264514 447.16039979 201.15973142 442.90593849 199.5625 438.125 C197.31154982 431.43923075 194.2347623 425.53684775 190.84375 419.38671875 C189.0674439 416.12388529 187.51610231 412.8586822 186.0625 409.4453125 C184.31327304 405.41951809 182.42085045 401.45999463 180.54858398 397.49023438 C178.1007509 392.27813932 175.83278542 387.00625578 173.625 381.6875 C172.44134887 378.91751231 171.12207761 376.24388043 169.75 373.5625 C167.04248714 368.23002041 164.67325267 362.76654649 162.32324219 357.26977539 C161.05007008 353.8923778 161.05007008 353.8923778 159 351 C158.95936168 349.33382885 158.957279 347.66611905 159 346 C158.34 346 157.68 346 157 346 C156.7733667 345.48091064 156.5467334 344.96182129 156.31323242 344.42700195 C155.27481025 342.05395715 154.23120438 339.68322607 153.1875 337.3125 C152.65286133 336.08756836 152.65286133 336.08756836 152.10742188 334.83789062 C150.28538729 330.70905995 148.33570819 326.86599976 146 323 C145.31036619 321.24576039 144.6647664 319.47362054 144.0625 317.6875 C142.61368576 313.56309778 140.98486587 309.70714506 138.9296875 305.8515625 C138 304 138 304 137.12890625 301.765625 C135.34811609 297.4029972 133.14761683 293.25496959 131.00976562 289.05859375 C128.83884925 284.76582125 126.87600472 280.43237381 125 276 C123.85431277 273.49008213 122.67799932 270.99488939 121.5 268.5 C119.72889823 264.74897659 117.98429919 260.99789072 116.37109375 257.17578125 C115.1244859 254.07298814 115.1244859 254.07298814 113.5625 251.6875 C111.62685829 248.35819626 110.3258079 244.90113091 108.96484375 241.3046875 C107.99892781 238.7921695 107.99892781 238.7921695 106 236 C106 234.68 106 233.36 106 232 C105.34 231.67 104.68 231.34 104 231 C103.12169275 229.3245492 102.32048443 227.6082105 101.5625 225.875 C101.1190625 224.86953125 100.675625 223.8640625 100.21875 222.828125 C99.32857436 220.762461 98.44391795 218.69441606 97.5625 216.625 C94.8801447 210.4019357 92.11904598 204.17693938 89.05249023 198.13232422 C87.87631807 195.74942287 86.8129322 193.33346907 85.7578125 190.89453125 C85.33113281 189.91033203 84.90445312 188.92613281 84.46484375 187.91210938 C83.80162109 186.37780273 83.80162109 186.37780273 83.125 184.8125 C81.41990755 180.87358464 79.71228237 176.93579554 78 173 C77.43925781 171.70884277 77.43925781 171.70884277 76.8671875 170.39160156 C76.52171875 169.60366211 76.17625 168.81572266 75.8203125 168.00390625 C75.52141113 167.32013916 75.22250977 166.63637207 74.91455078 165.93188477 C73.96291645 163.92166521 72.88726493 162.03555553 71.75 160.125 C70 157 70 157 70 154 C69.34 154 68.68 154 68 154 C67.62875 152.948125 67.2575 151.89625 66.875 150.8125 C64.98903289 145.76529278 62.6935491 140.9219684 60.4140625 136.04296875 C58.87029388 132.72088103 57.42722236 129.37343467 56 126 C53.89904322 121.2083442 51.74500836 116.4424947 49.5625 111.6875 C47.76695488 107.76695195 46.10747761 103.81355711 44.5 99.8125 C42.73244264 95.50477373 40.6994732 91.74293773 38.12890625 87.875 C36.2510801 84.75611919 35.20068145 81.43051844 34 78 C33.5875 77.21625 33.175 76.4325 32.75 75.625 C32.5025 75.08875 32.255 74.5525 32 74 C32.33 73.34 32.66 72.68 33 72 C32.34 72 31.68 72 31 72 C28.25537895 66.80482444 26.07825411 61.67698677 24.22265625 56.1015625 C22.81019547 52.51851503 21.11374155 49.14482576 19.37133789 45.71240234 C13.37555931 33.85320703 7.73573983 21.7901882 2.25 9.6875 C1.72925903 8.55924805 1.72925903 8.55924805 1.19799805 7.40820312 C0.4032999 5.63194144 -0.30761283 3.81858481 -1 2 C-0.67 1.34 -0.34 0.68 0 0 Z M147 626 C146.01 626.33 145.02 626.66 144 627 C142.62298702 628.28817344 141.29355827 629.62804426 140 631 C139.319375 631.53625 138.63875 632.0725 137.9375 632.625 C135.40737011 635.72644955 134.68749301 638.77753954 133.65625 642.60546875 C133 645 133 645 131.875 647.75 C129.69896011 653.34553116 130.01701605 658.65281136 130.5 664.5 C131.14702525 672.33313547 131.14702525 672.33313547 130.34375 675.9765625 C129.83704996 680.4332197 131.33558107 683.77940736 133 687.875 C133.32323242 688.67711914 133.64646484 689.47923828 133.97949219 690.30566406 C137.9283471 699.69618687 142.81903133 705.25763361 152.03515625 709.859375 C157.79377913 712.07481358 163.55354329 713.17919203 169.51171875 711.140625 C171.84605136 709.91995532 173.89217457 708.57783477 176 707 C176.66128906 706.51789063 177.32257812 706.03578125 178.00390625 705.5390625 C181.8934534 702.46964951 184.07955176 699.64950627 186 695 C186.33257813 694.42507813 186.66515625 693.85015625 187.0078125 693.2578125 C188.3463086 690.21194343 188.64707552 687.29546813 189.0625 684 C189.54154405 680.26266462 190.00833995 676.63608683 191 673 C191.91785129 668.31895843 192.02436481 664.31990536 191.36328125 659.64453125 C191.09205329 657.67010838 190.89266806 655.68557261 190.73046875 653.69921875 C189.66047595 642.94049993 185.9971868 635.44942735 178.0625 628.0625 C176.7343253 627.00807123 175.38068331 625.98467337 174 625 C173.39671875 624.566875 172.7934375 624.13375 172.171875 623.6875 C163.88386772 618.67290736 153.62300569 618.85412544 147 626 Z M463 632 C462.13375 632.78375 461.2675 633.5675 460.375 634.375 C456.91698788 638.48006346 456.9077699 643.70604065 456.359375 648.85546875 C456 652 456 652 455 655 C454.66902545 660.06196376 454.929374 665.15430648 455.26171875 670.2109375 C455.89632478 679.96514432 455.96629837 689.4722623 455.31860352 699.23388672 C455.26502686 700.0745166 455.2114502 700.91514648 455.15625 701.78125 C455.07600586 702.8959668 455.07600586 702.8959668 454.99414062 704.03320312 C454.89791038 706.21606467 454.89791038 706.21606467 456 709 C455.91342064 710.75393027 455.75990192 712.50506452 455.5625 714.25 C454.73856228 721.78759903 454.73856228 721.78759903 455.484375 729.2890625 C456.68847788 735.61972464 457.45917326 742.51940546 454.125 748.1875 C443.32351339 754.45236224 425.95621798 753.35011656 414 751 C411.61116845 750.00805906 409.39584173 748.85676141 407.11328125 747.64453125 C404.97631188 746.75753952 404.97631188 746.75753952 402.83984375 747.81640625 C402.23269531 748.20699219 401.62554688 748.59757812 401 749 C397.68655448 751.13007212 395.11303599 751.0113254 391.23730469 750.96826172 C387.62068685 751.01956686 384.07926963 751.5095075 380.5 752 C379.40945313 752.14308594 379.40945313 752.14308594 378.296875 752.2890625 C376.53064133 752.52146167 374.76522594 752.76006638 373 753 C372.60619925 754.65342368 372.2765701 756.32297947 372 758 C373.9848142 760.9772213 376.69249348 761.88224024 380 763 C382.8765297 763.28016805 382.8765297 763.28016805 385.9609375 763.21118164 C387.13986572 763.20780289 388.31879395 763.20442413 389.53344727 763.20094299 C391.43501587 763.18075356 391.43501587 763.18075356 393.375 763.16015625 C395.38670307 763.15220519 397.39840618 763.14425971 399.41011047 763.13662624 C402.22774492 763.12351119 405.04527937 763.1013237 407.862854 763.07904053 C413.43458011 763.03591793 419.00634332 763.00586522 424.57818604 762.9829998 C426.50381643 762.97296215 428.42940429 762.95559794 430.35498047 762.93800354 C437.24368082 762.90064135 444.00657784 763.18056781 450.86886597 763.76945496 C455.9139307 764.1409225 460.94738308 764.14293849 466.00390625 764.1328125 C467.63162209 764.13424759 467.63162209 764.13424759 469.29222107 764.13571167 C471.56517597 764.13638624 473.83813288 764.13458296 476.11108398 764.13037109 C479.55782458 764.12500728 483.00443521 764.13034362 486.45117188 764.13671875 C488.67708362 764.13605794 490.90299528 764.13477672 493.12890625 764.1328125 C494.14175186 764.13483673 495.15459747 764.13686096 496.19813538 764.13894653 C502.32239278 764.11921151 508.35761845 763.79528603 514.45588684 763.22705078 C520.87901834 762.65381487 527.29521341 762.72966401 533.6875 763.5625 C538.75969965 764.13943266 543.69177356 763.77977603 548.76074219 763.40429688 C556.32514963 762.88578218 563.87195516 762.9673999 571.44970703 763.12524414 C577.88546293 763.20215481 583.74590525 762.5285882 590 761 C591.0603041 756.99845652 591.54842956 752.98257948 592 748.875 C592.12918823 747.70130859 592.12918823 747.70130859 592.26098633 746.50390625 C592.87609179 740.67695821 593.34044276 734.84886533 593.6875 729 C593.73583984 728.22897949 593.78417969 727.45795898 593.83398438 726.66357422 C594.14650654 722.70789931 594.14650654 722.70789931 593 719 C592.72808438 713.28177439 592.63871994 707.47515179 593.5625 701.8125 C594.26943571 699.05605572 594.26943571 699.05605572 593 697 C592.34 697 591.68 697 591 697 C591 696.34 591 695.68 591 695 C591.66 695 592.32 695 593 695 C592.98839844 694.2471875 592.97679687 693.494375 592.96484375 692.71875 C592.91134871 686.42161924 593.08795633 680.21202191 593.5625 673.9375 C593.98793681 668.12134917 593.87805934 662.55690581 593.25390625 656.7578125 C592.92734136 653.21081536 592.96762975 649.71388443 593.0625 646.15625 C592.99858276 643.95110536 592.55617434 642.12704845 592 640 C591.938125 638.741875 591.87625 637.48375 591.8125 636.1875 C591.19636756 631.1744224 588.77828999 628.22337915 585 625 C580.34800131 621.86475635 576.68114588 620.51406551 571 621 C568.06917382 622.08174495 568.06917382 622.08174495 565.3125 623.6875 C564.38050781 624.18636719 563.44851563 624.68523438 562.48828125 625.19921875 C559.70230832 627.21544092 558.59396119 628.98502942 557 632 C556.33097656 632.91652344 556.33097656 632.91652344 555.6484375 633.8515625 C552.21925932 638.62716646 551.37741611 642.54305233 551.140625 648.38671875 C550.99906517 651.01737223 550.56620352 653.43063707 550 656 C548.69339108 663.18634906 547.92028735 670.20434034 548.03285217 677.5059967 C547.99914663 680.06478427 547.77363066 682.5436412 547.50170898 685.08764648 C546.96024732 690.81861807 546.90426817 696.47073995 546.97265625 702.22265625 C546.98529608 704.32877444 546.99765751 706.43489431 547.00976562 708.54101562 C547.0345738 711.8080797 547.06262802 715.07505226 547.09594727 718.34204102 C547.12634052 721.53141828 547.14397333 724.72067952 547.16015625 727.91015625 C547.18034569 729.35588768 547.18034569 729.35588768 547.20094299 730.83082581 C547.22317201 736.91471842 547.10119079 743.22279797 545 749 C536.86057503 754.42628331 525.06582961 753.1317254 515.75 752.25 C514.83299316 752.16395508 513.91598633 752.07791016 512.97119141 751.98925781 C506.40483956 751.26989304 506.40483956 751.26989304 503 749 C500.64155842 741.15457189 501.00259754 733.33148647 501.77734375 725.28125 C502.03075962 721.54670037 501.6760791 718.14409816 501.1875 714.44921875 C500.90259579 710.72765745 501.37012665 707.13742182 501.84375 703.4453125 C502.12577565 701.08091438 502.12577565 701.08091438 501.51190186 699.17919922 C500.9072939 696.60534414 500.91674023 694.33131082 500.96582031 691.6875 C500.9820343 690.62539307 500.99824829 689.56328613 501.01495361 688.46899414 C501.03580017 687.32422607 501.05664673 686.17945801 501.078125 685 C501.10540387 682.56121144 501.13140415 680.12240831 501.15625 677.68359375 C501.19931833 673.85002275 501.24967398 670.01721499 501.32226562 666.18408203 C501.38941835 662.47677197 501.42379843 658.77027852 501.453125 655.0625 C501.48206848 653.93392578 501.51101196 652.80535156 501.54083252 651.64257812 C501.5715841 642.36831401 499.25740886 633.91741446 493.5625 626.4375 C490.22696753 623.26467643 487.23362905 621.42257847 482.6875 620.5625 C474.74700039 621.85513947 468.41196815 626.26003378 463 632 Z M132 788 C131.03705408 790.88883775 130.89492087 792.63867202 130.9375 795.6328125 C130.94523438 796.52097656 130.95296875 797.40914062 130.9609375 798.32421875 C130.98027344 799.71060547 130.98027344 799.71060547 131 801.125 C131.02539253 802.9608801 131.04646519 804.79682682 131.0625 806.6328125 C131.07410156 807.44637207 131.08570313 808.25993164 131.09765625 809.09814453 C131 811 131 811 130 812 C129.17010226 816.67067829 128.88106037 821.16002624 128.90234375 825.89746094 C128.90380402 826.54715347 128.90526428 827.19684601 128.9067688 827.8662262 C128.91054614 829.26300582 128.9166318 830.6597808 128.92483521 832.05654144 C128.9376924 834.26746074 128.94413742 836.4783195 128.94897461 838.68927002 C128.9603489 843.37620742 128.97961433 848.06309428 129 852.75 C129.02361542 858.19724414 129.04398059 863.64446021 129.05593872 869.09174347 C129.0624181 871.26935127 129.0749207 873.44687172 129.08764648 875.62445068 C129.09094971 876.94302063 129.09425293 878.26159058 129.09765625 879.62011719 C129.10289307 880.78258972 129.10812988 881.94506226 129.11352539 883.14276123 C129 886 129 886 128 889 C128.06229902 891.04454068 128.19676067 893.08729087 128.375 895.125 C128.47296875 896.27871094 128.5709375 897.43242188 128.671875 898.62109375 C128.94985141 901.48358897 129.27231481 904.33353431 129.625 907.1875 C130 911 130 911 129 913 C129.37604779 919.23327704 130.92108342 924.02781213 135.29296875 928.52734375 C138.95360076 931.68537182 142.26431705 933.79580201 147.1875 934.375 C149.99154582 934.00112722 151.58100154 933.40457975 154 932 C154.77859375 931.72414063 155.5571875 931.44828125 156.359375 931.1640625 C161.91035584 928.71703249 166.13718301 924.01323964 168.5 918.5 C168.665 917.675 168.83 916.85 169 916 C169.66 916 170.32 916 171 916 C171.12375 914.741875 171.2475 913.48375 171.375 912.1875 C171.69868059 908.89674737 172.06604999 907.90092502 174 905 C174.20556923 902.49881494 174.20556923 902.49881494 174.0625 899.6875 C173.97732105 895.00265792 174.13289809 890.42174891 174.5 885.75 C175.28512893 877.00678661 175.28512893 877.00678661 174.4609375 868.31640625 C173.89663606 864.2563052 174.16588157 860.50734681 174.5 856.4375 C174.88059131 851.77728087 175.07462239 847.58661296 174 843 C173.68615258 836.90766775 174.0577943 830.98288743 174.84765625 824.9453125 C175.03900627 822.50191989 174.59142485 820.3656994 174 818 C174.33 817.67 174.66 817.34 175 817 C175.3740458 814.48533064 175.70634247 811.96926583 176.01171875 809.4453125 C177 807 177 807 179.64624023 805.38793945 C185.38007319 803.01501666 191.23697995 803.25469446 197.375 803.0625 C198.6640625 802.99482422 199.953125 802.92714844 201.28125 802.85742188 C208.74092672 802.59319308 213.71821725 802.83507105 220 807 C222 809 222 809 222.21118164 810.87597656 C222.19434326 811.62331055 222.17750488 812.37064453 222.16015625 813.140625 C222.1437207 814.37619141 222.1437207 814.37619141 222.12695312 815.63671875 C222.10568359 816.49910156 222.08441406 817.36148438 222.0625 818.25 C221.95112213 823.67038978 222.0469446 828.64398619 223 834 C222.84375 836.203125 222.84375 836.203125 222.5 838.25 C222.08241411 841.44796787 222.03566984 844.23937225 222.4375 847.4375 C223.93190318 860.09140746 223.02704115 873.0877455 222.26806641 885.76831055 C221.96341264 891.4874006 222.14401386 896.95899893 222.77807617 902.65307617 C223 905 223 905 222.875 908.375 C223.14881585 916.31565973 224.38139041 924.87080784 230.19140625 930.6953125 C234.25759355 933.62858801 238.68534299 935.05382923 243.6875 934.9375 C246.75882091 933.6923699 249.27365493 931.87436223 252 930 C252.86625 929.731875 253.7325 929.46375 254.625 929.1875 C258.18312959 927.4084352 259.47397019 924.58385789 261 921 C261.36106097 919.33911955 261.70462173 917.67381019 262 916 C262.66 915.67 263.32 915.34 264 915 C267.00860136 906.15117247 267.87748309 894.69514688 266.5 885.5 C266 882 266 882 266.4609375 879.1640625 C267.41106277 873.12100984 267.14380649 866.97457272 267.125 860.875 C267.12886719 859.61300781 267.13273437 858.35101562 267.13671875 857.05078125 C267.13542969 855.83519531 267.13414062 854.61960937 267.1328125 853.3671875 C267.13112061 851.71372314 267.13112061 851.71372314 267.12939453 850.02685547 C267.08067278 847.06001951 267.08067278 847.06001951 266.48632812 844.43823242 C265.94725001 841.73553505 265.96296305 839.37197876 266.0859375 836.62109375 C266.15167969 835.11579102 266.15167969 835.11579102 266.21875 833.58007812 C266.2703125 832.54302734 266.321875 831.50597656 266.375 830.4375 C266.44074219 828.87612305 266.44074219 828.87612305 266.5078125 827.28320312 C266.86915751 819.47915459 266.86915751 819.47915459 267.58447266 816.85961914 C268.21536042 814.78692058 268.21536042 814.78692058 267 812 C267.625 809.4375 267.625 809.4375 269 807 C276.12651089 803.14783195 284.39374156 803.78360966 292.25 803.75 C293.43980469 803.729375 294.62960937 803.70875 295.85546875 803.6875 C302.54662926 803.65792581 308.97842009 803.75171106 315 807 C317.0625 809.6875 317.0625 809.6875 318 812 C319.56249809 810.68798827 319.56249809 810.68798827 321 809 C321 808.01 321 807.02 321 806 C325.85166093 804.43424901 329.87803721 803.75891589 335.02734375 803.8046875 C336.95610352 803.81435547 336.95610352 803.81435547 338.92382812 803.82421875 C340.26172154 803.84092399 341.59961217 803.85785381 342.9375 803.875 C344.30272783 803.88504678 345.6679628 803.89416964 347.03320312 803.90234375 C350.35565199 803.92582395 353.67773321 803.95866641 357 804 C357 803.34 357 802.68 357 802 C359.97 801.505 359.97 801.505 363 801 C363.91384641 798.53261469 364.03486045 797.15106194 363.4375 794.5625 C360.67750404 789.6425072 356.34609357 786.56903883 351 785 C347.46235655 784.71855454 343.93771188 784.74385562 340.390625 784.76953125 C339.35041199 784.76998947 338.31019897 784.77044769 337.23846436 784.7709198 C335.03282534 784.77393927 332.82718841 784.78181646 330.62158203 784.79418945 C327.30363079 784.81220874 323.98596337 784.81470048 320.66796875 784.81445312 C311.70484925 784.83018189 302.78443222 784.87375927 293.84375 785.5390625 C281.36212717 786.44637027 268.81587381 785.86582603 256.31591797 785.60510254 C250.21599489 785.47931235 244.11579046 785.36719857 238.015625 785.25390625 C236.71466888 785.22971115 235.41371277 785.20551605 234.07333374 785.18058777 C226.44200595 785.04445155 218.81227876 784.94183909 211.1796875 784.9296875 C210.38298645 784.92711441 209.5862854 784.92454132 208.76544189 784.92189026 C202.33561312 784.9314797 195.93637939 785.2688971 189.52427673 785.73243713 C185.6425259 786.01222633 181.9691704 785.95268023 178.09765625 785.54296875 C170.74421425 784.7895738 163.39424431 784.77762767 156.0090332 784.75976562 C153.54280554 784.74992139 151.07736618 784.7187373 148.61132812 784.6875 C147.03385904 784.68098058 145.45638411 784.67572597 143.87890625 784.671875 C143.14660294 784.6595282 142.41429962 784.6471814 141.6598053 784.63446045 C137.51102822 784.65263851 134.90811739 784.91235802 132 788 Z M551.25 845.9375 C548.43158032 848.52105138 545.54252289 849.62235221 542 851 C538.86981486 852.56509257 537.97675197 855.65676007 536.5 858.6875 C536.19191406 859.30044922 535.88382813 859.91339844 535.56640625 860.54492188 C532.32444488 867.1053716 530.71879258 872.70011463 530.4375 880 C530.27076292 883.77464363 530.10319278 887.45807147 529.39453125 891.1796875 C528.95890435 894.29377284 529.31951253 896.14196665 530.25 899.125 C531.1563359 902.09375358 531.99587499 904.97882861 532.58984375 908.02734375 C534.53321541 917.89662336 539.29709853 924.59785253 547.4375 930.5 C555.83683321 935.55395776 562.64353657 935.27353317 572 933 C572.495 931.515 572.495 931.515 573 930 C574.875 929.4375 574.875 929.4375 577 929 C580.24849977 927.27773504 580.24849977 927.27773504 581 924 C581.99 923.34 582.98 922.68 584 922 C586.20426699 919.63245397 586.96469578 918.51779519 587.1875 915.25 C587.0946875 914.13625 587.0946875 914.13625 587 913 C587.66 912.67 588.32 912.34 589 912 C591.62413955 905.76288106 591.37215661 899.48938178 591.37060547 892.85205078 C591.37496025 890.76901293 591.41128051 888.68813018 591.44921875 886.60546875 C591.51699285 878.56976559 590.67314589 872.19339048 587 865 C586.59136719 864.03707031 586.18273438 863.07414062 585.76171875 862.08203125 C580.84695449 851.69847475 574.72556504 847.43314159 564.3046875 843.06640625 C558.58357153 841.22023053 555.45573515 841.28115037 551.25 845.9375 Z " fill="#000000" transform="translate(893,474)"/>
<path d="" fill="#000000" transform="translate(0,0)"/>
<path d="" fill="#000000" transform="translate(0,0)"/>
<path d="" fill="#000000" transform="translate(0,0)"/>
<path d="" fill="#000000" transform="translate(0,0)"/>
<path d="" fill="#000000" transform="translate(0,0)"/>
<path d="" fill="#000000" transform="translate(0,0)"/>
<path d="" fill="#000000" transform="translate(0,0)"/>
<path d="" fill="#000000" transform="translate(0,0)"/>
<path d="" fill="#000000" transform="translate(0,0)"/>
</svg>
