<?xml version="1.0" encoding="UTF-8"?>
<svg version="1.1" xmlns="http://www.w3.org/2000/svg" width="1800" height="1800">
<path d="M0 0 C0.95926569 -0.00664781 1.91853137 -0.01329562 2.90686572 -0.02014488 C6.11173694 -0.03978338 9.3164682 -0.04520913 12.52139282 -0.05052185 C14.82306786 -0.06142065 17.12473935 -0.07309276 19.42640686 -0.08547974 C25.67225776 -0.11595103 31.91807187 -0.1329939 38.16398191 -0.14569592 C42.06723939 -0.15378614 45.97048633 -0.16396675 49.87373734 -0.17471123 C60.69130663 -0.2036722 71.50886353 -0.22869385 82.32646751 -0.23933506 C83.36353562 -0.2403711 83.36353562 -0.2403711 84.4215546 -0.24142807 C85.11453155 -0.24212009 85.80750849 -0.2428121 86.52148473 -0.24352509 C87.92558822 -0.24493705 89.3296917 -0.24635787 90.73379517 -0.24778748 C91.43027033 -0.24849265 92.1267455 -0.24919782 92.84432597 -0.24992435 C104.13174764 -0.26217711 115.41883365 -0.30498482 126.70611601 -0.36072768 C138.30823403 -0.41755828 149.91016537 -0.4473981 161.51242316 -0.45234722 C168.02136652 -0.45574578 174.5298038 -0.47061282 181.03861618 -0.51362801 C187.16033941 -0.55337888 193.28120314 -0.55978355 199.40301704 -0.54072762 C201.64717412 -0.53946157 203.89137515 -0.55013374 206.1354084 -0.57374191 C225.20730067 -0.76290715 225.20730067 -0.76290715 231.00012207 3.65112305 C232.8027935 5.4914465 232.8027935 5.4914465 234.29727173 7.28761292 C235.36733688 8.30066196 236.44498369 9.30585095 237.53457642 10.29786682 C238.5179169 11.2815144 239.49606884 12.27037438 240.46914673 13.26417542 C240.99945496 13.79731354 241.52976318 14.33045166 242.07614136 14.87974548 C243.73803514 16.55264255 245.39277987 18.23239854 247.04727173 19.91261292 C248.16789047 21.04329223 249.28898152 22.17350364 250.41055298 23.30323792 C252.46914532 25.37800518 254.52496103 27.45543733 256.57754517 29.53614807 C260.19307015 33.19386499 263.82845427 36.83089491 267.48867798 40.44386292 C268.6124078 41.55841408 269.73610528 42.67299786 270.85977173 43.78761292 C271.42373657 44.34319885 271.98770142 44.89878479 272.5687561 45.47120667 C275.71533864 48.59938813 278.52693285 51.81584781 281.29727173 55.28761292 C282.53774613 56.42578015 283.80846266 57.53203235 285.10977173 58.60011292 C287.9297221 61.00306508 290.40590935 63.45847252 292.79727173 66.28761292 C295.0097204 68.90430983 297.25707209 71.20556168 299.87930298 73.40870667 C304.98683335 77.81799238 309.72624107 82.57029129 314.48477173 87.35011292 C315.3606897 88.2221637 316.23660767 89.09421448 317.1390686 89.99269104 C324.22823803 97.09260977 324.22823803 97.09260977 327.18399048 100.70948792 C328.99632519 102.92046926 330.72519186 104.67002307 332.92227173 106.47511292 C340.39297952 112.858402 347.33894539 119.91829313 353.66445923 127.43605042 C355.77352624 129.82767185 358.03083557 132.04496244 360.29727173 134.28761292 C361.08746704 135.08940979 361.87766235 135.89120667 362.69180298 136.71730042 C363.48973267 137.52425354 364.28766235 138.33120667 365.10977173 139.16261292 C365.89996704 139.96440979 366.69016235 140.76620667 367.50430298 141.59230042 C369.58598466 143.60119602 371.67323653 145.48538196 373.86758423 147.36183167 C379.07069917 151.87670389 383.91171116 156.75216634 388.77017212 161.63014221 C390.35687119 163.22220258 391.94884915 164.80884282 393.54141235 166.39503479 C402.00533401 174.85416322 402.00533401 174.85416322 405.71133423 179.21730042 C408.826374 182.86338254 412.18388555 186.21823933 415.59805298 189.58058167 C416.16490311 190.1395665 416.73175323 190.69855133 417.31578064 191.2744751 C419.67977209 193.60188232 422.04653987 195.92629373 424.42251587 198.24147034 C426.17531409 199.9519178 427.91850168 201.67169923 429.66055298 203.39308167 C430.19698929 203.91089706 430.7334256 204.42871246 431.28611755 204.96221924 C436.59606292 210.23531796 437.52338755 214.30209856 437.55077225 221.5540812 C437.54426445 222.52400372 437.53775664 223.49392624 437.53105164 224.49324036 C437.53205492 225.53090727 437.5330582 226.56857418 437.53409189 227.63768554 C437.53504567 231.1203546 437.52169272 234.60282258 437.50845337 238.08546448 C437.50625235 240.58075398 437.50494671 243.07604441 437.50447083 245.57133484 C437.5015347 250.94985459 437.49253094 256.3283124 437.47816658 261.70681 C437.45745051 269.50169265 437.44879764 277.2965532 437.44324522 285.09145972 C437.43398693 297.76297868 437.4165338 310.43447184 437.39321899 323.10597229 C437.39182568 323.86428289 437.39043237 324.62259348 437.38899683 325.40388319 C437.3876013 326.16306721 437.38620577 326.92225123 437.38476795 327.70444083 C437.3650515 338.43789143 437.34720001 349.17134286 437.33169556 359.90480042 C437.33005928 361.03541851 437.33005928 361.03541851 437.32838995 362.18887737 C437.31030729 374.79892282 437.29636704 387.40897091 437.2845239 400.01902366 C437.27696951 407.78344076 437.26527595 415.54783148 437.24806225 423.3122333 C437.23502325 429.28064635 437.22702524 435.24905525 437.22075081 441.21747971 C437.21730432 443.65175825 437.21211711 446.0860351 437.20498276 448.52030563 C437.18419863 455.77708346 437.20689319 463.0313553 437.29727173 470.28761292 C437.30442979 471.16124324 437.31158784 472.03487356 437.31896281 472.93497753 C437.3480369 475.31155353 437.41167866 477.68412233 437.48988342 480.05952454 C437.54098345 481.99610743 437.54098345 481.99610743 437.59311581 483.9718132 C438.47533653 488.12610225 440.12429524 489.55825477 443.29727173 492.28761292 C444.7437257 494.18482388 446.16257685 496.10327388 447.55899048 498.03761292 C454.20882471 506.93253072 462.20710519 514.52228641 470.10977173 522.28761292 C471.61243207 523.77518011 473.11438963 525.26345757 474.6156311 526.75245667 C477.90749059 530.01520405 481.20582789 533.27122589 484.51048279 536.52101135 C486.78223826 538.76710023 489.03884625 541.02812138 491.29727173 543.28761292 C492.03683357 544.02717476 492.77639542 544.7667366 493.53836823 545.52870941 C527.79133606 579.78167725 562.04430389 614.03464508 596.29727173 648.28761292 C597.16340434 649.15360674 598.02953695 650.01960056 598.92191601 650.91183662 C601.48483335 653.47520774 604.04429728 656.0419916 606.60317993 658.60939026 C611.74141999 663.76397978 616.88221056 668.91601766 622.02445698 674.06661034 C625.1257617 677.1731315 628.2261239 680.28058143 631.32437134 683.39015198 C634.3364554 686.41316767 637.35103558 689.43367402 640.36730003 692.45251846 C641.50871808 693.59576924 642.649263 694.73989251 643.78887367 695.88494492 C649.26773934 701.38894146 654.73105634 706.8565161 660.67860413 711.86213684 C663.90413841 714.70269653 666.6386146 718.01452398 669.42617798 721.27589417 C671.96077703 724.14649194 673.54414343 725.5845229 677.29727173 726.28761292 C677.31440988 659.03967347 677.33030954 591.79173376 677.33961487 524.54379272 C677.33982195 523.051044 677.33982195 523.051044 677.34003322 521.52813874 C677.34302608 499.90091467 677.34579627 478.27369057 677.34833706 456.64646645 C677.3495844 446.04060185 677.35088096 435.43473726 677.35220337 424.82887268 C677.35233413 423.77345725 677.35246489 422.71804181 677.35259961 421.63064409 C677.35686155 387.41675152 677.36437331 353.20286059 677.37356895 318.98896902 C677.38300089 283.8320644 677.38915702 248.67516069 677.39118672 213.51825483 C677.39147488 208.55348369 677.39180051 203.58871256 677.39214897 198.62394142 C677.39225011 197.15822282 677.39225011 197.15822282 677.39235328 195.66289373 C677.39353536 179.92856893 677.3981744 164.19424695 677.40410376 148.45992329 C677.40998995 132.64464351 677.41223997 116.82936652 677.41077311 101.01408567 C677.41001208 91.61602241 677.41204428 82.2179694 677.41806927 72.81990799 C677.42181963 66.54138349 677.42193504 60.26286569 677.41910354 53.98434072 C677.41759419 50.40734971 677.41765699 46.83037808 677.42215491 43.25338914 C677.42696792 39.39645744 677.42400855 35.53955348 677.42031956 31.68262005 C677.42426008 30.02455743 677.42426008 30.02455743 677.4282802 28.3329986 C677.41542271 22.39342634 677.11158209 16.63628436 676.31638333 10.7463822 C676.28719201 6.99082466 677.4077754 4.27084561 679.9154377 1.49892235 C683.35275985 -0.24916786 686.63801782 -0.12608169 690.40661621 -0.09333801 C691.23067809 -0.09801798 692.05473997 -0.10269796 692.90377343 -0.10751975 C695.66905437 -0.11949944 698.43384245 -0.11000087 701.1991272 -0.10057068 C703.18010752 -0.10463512 705.16108558 -0.10997628 707.14205933 -0.11650085 C712.52640749 -0.13019716 717.91058352 -0.12486575 723.29493475 -0.1153636 C728.92691359 -0.10777688 734.55887753 -0.11481006 740.19085693 -0.11952209 C749.65164845 -0.12498342 759.11236977 -0.11777906 768.57315063 -0.10350037 C779.51129695 -0.08718259 790.44927544 -0.09245455 801.38741767 -0.10897958 C810.77521478 -0.12259494 820.16296137 -0.12451357 829.55076516 -0.11666358 C835.15906342 -0.11198613 840.76728282 -0.11136402 846.37557602 -0.12127304 C851.65003306 -0.12994076 856.92427389 -0.12392418 862.19870758 -0.10659027 C864.13448096 -0.10262401 866.07027253 -0.10376186 868.00603867 -0.11037827 C870.64892458 -0.11857849 873.29111813 -0.1082905 875.93395996 -0.09333801 C877.082609 -0.10337626 877.082609 -0.10337626 878.25446308 -0.1136173 C884.01180239 -0.05045722 888.18636753 1.17670872 892.29727173 5.28761292 C892.54197073 7.53329378 892.54197073 7.53329378 892.5344162 10.39875126 C892.53644153 11.48807845 892.53846686 12.57740563 892.54055357 13.69974273 C892.53257891 14.90662579 892.52460425 16.11350884 892.51638794 17.35696411 C892.51588959 18.63221642 892.51539124 19.90746872 892.5148778 21.22136503 C892.51365332 24.03029411 892.50598799 26.83910993 892.49352646 29.64801145 C892.47330964 34.21146457 892.46697541 38.77487771 892.46221924 43.33836937 C892.45387423 49.97733054 892.43881572 56.61624833 892.41944885 63.25518608 C892.3886563 73.92594275 892.37296949 84.59669413 892.36087036 95.26748657 C892.35983698 96.16915934 892.3588036 97.07083211 892.35773891 97.9998283 C892.35356091 101.67525843 892.34945272 105.3506886 892.34553871 109.02611902 C892.33954464 114.64878016 892.33263559 120.27143926 892.32507679 125.8940985 C892.27749575 161.82165033 892.36077205 197.74816062 892.48970792 233.67546149 C892.51956901 242.00620456 892.54755991 250.3369536 892.57541399 258.66770358 C892.58966329 262.92756605 892.60399006 267.18742826 892.61833 271.44729042 C892.62118988 272.29710222 892.62404975 273.14691401 892.62699629 274.02247768 C892.64740952 280.07885608 892.66812937 286.13523338 892.68896675 292.19161034 C892.83172655 333.73268007 892.95832625 375.27379358 893.07070923 416.81495667 C893.0747278 418.3001051 893.0747278 418.3001051 893.07882756 419.81525654 C893.34281323 517.69573925 893.4126237 615.57622703 893.42010236 713.45703322 C893.42125013 727.69950946 893.42442895 741.94198396 893.4288433 756.18445954 C893.43494693 776.00959782 893.4370909 795.83473103 893.43283308 815.65986997 C893.43241502 817.64144568 893.43200098 819.62302138 893.43159103 821.60459709 C893.43138893 822.57551054 893.43118683 823.54642399 893.4309786 824.54675907 C893.42983332 831.15686634 893.43106511 837.76697024 893.43342972 844.3770771 C893.44839991 889.69044681 893.15409924 934.98167942 892.29727173 980.28761292 C889.42015879 981.91972823 887.36668854 982.53732849 884.06643391 982.53485107 C883.22452167 982.53904997 882.38260943 982.54324886 881.5151847 982.547575 C880.13529256 982.53913913 880.13529256 982.53913913 878.7275238 982.53053284 C877.74632008 982.53239153 876.76511635 982.53425022 875.75417918 982.53616524 C872.45702572 982.53980617 869.16008081 982.52895596 865.86294556 982.51808167 C863.50260424 982.51747774 861.1422626 982.51767509 858.78192139 982.51861572 C851.69259533 982.51802596 844.60337262 982.50032976 837.51407841 982.48041821 C834.17350427 982.47159995 830.83292521 982.46524444 827.49234581 982.45881653 C816.38406071 982.43689096 805.27579918 982.411202 794.16756153 982.37159729 C793.10137688 982.36780457 793.10137688 982.36780457 792.01365314 982.36393523 C791.30118221 982.36139684 790.58871128 982.35885845 789.85465032 982.35624313 C788.4109636 982.35110127 786.96727685 982.34596542 785.52359009 982.34083557 C784.80747473 982.33828782 784.09135937 982.33574006 783.35354354 982.3331151 C771.75567173 982.29256968 760.15793783 982.27894566 748.56000153 982.2769953 C736.64600739 982.27460816 724.7322314 982.24978005 712.81832904 982.20251751 C706.13172798 982.17651007 699.4454567 982.16068191 692.7587986 982.1683197 C686.46717511 982.17485112 680.17628431 982.15292117 673.88481522 982.10924721 C671.57782441 982.09809679 669.27075826 982.09711383 666.96376228 982.10713768 C663.80897622 982.11926543 660.65651804 982.0944402 657.50193787 982.06056213 C656.59316338 982.07278399 655.68438889 982.08500586 654.74807578 982.09759808 C645.94206792 981.92596806 639.96870443 977.35039855 633.89834595 971.24513245 C632.79207352 970.14336166 632.79207352 970.14336166 631.66345215 969.01933289 C630.90065948 968.24419342 630.13786682 967.46905396 629.35195923 966.67042542 C628.53784576 965.85443878 627.7237323 965.03845215 626.88494873 964.19773865 C625.17559248 962.48169954 623.46981761 960.76208619 621.76748657 959.03907776 C619.17967744 956.4201078 616.58135035 953.81195999 613.98086548 951.20558167 C612.31227266 949.52781668 610.64428349 947.84945107 608.97695923 946.17042542 C608.2101181 945.39933441 607.44327698 944.62824341 606.65319824 943.83378601 C603.18760842 940.32266101 599.81307291 936.78021992 596.59170532 933.04273987 C593.87647163 929.89656981 591.02569175 927.07830574 587.90664673 924.32276917 C580.60123912 917.76060238 573.66199141 910.83842453 566.72012329 903.89576721 C564.51424996 901.69212454 562.30043003 899.49666239 560.08633423 897.30128479 C558.68220195 895.90007937 557.27853776 894.4984047 555.87539673 893.09620667 C555.21308044 892.4410759 554.55076416 891.78594513 553.86837769 891.11096191 C553.26644592 890.50595352 552.66451416 889.90094513 552.04434204 889.27760315 C551.51205994 888.74674606 550.97977783 888.21588898 550.43136597 887.66894531 C549.29727173 886.28761292 549.29727173 886.28761292 549.29727173 884.28761292 C548.74039673 884.06073792 548.18352173 883.83386292 547.60977173 883.60011292 C541.07776693 879.89275884 535.9526676 872.6504004 530.9125061 867.17042542 C528.06934287 864.11077767 525.25943965 861.15730422 522.01992798 858.51417542 C519.74390649 856.6528666 518.00283687 854.93331394 516.17227173 852.66261292 C513.06436435 849.01359666 509.70584966 845.76458036 506.17227173 842.53761292 C505.66937622 842.077901 505.16648071 841.61818909 504.64834595 841.14454651 C502.44706981 839.15477832 500.23943425 837.24409533 497.86758423 835.45948792 C494.98079275 833.02019299 492.67201821 830.33435231 490.22012329 827.46827698 C486.88610041 823.68723426 483.26690983 820.19374151 479.67227173 816.66261292 C471.48668781 808.62013361 471.48668781 808.62013361 468.49258423 804.95558167 C466.67762671 802.74985928 464.99409983 801.01752493 462.79727173 799.22511292 C454.45765155 792.10399512 446.64666717 784.14626525 439.56680298 775.77589417 C438.22187888 774.15950557 438.22187888 774.15950557 436.29727173 772.28761292 C434.81178801 767.46806288 435.16467823 762.355416 435.18374634 757.36360168 C435.18359748 756.35608062 435.18344862 755.34855955 435.18329525 754.31050754 C435.18399048 750.92948241 435.19183666 747.54851143 435.19961548 744.16749573 C435.20153458 741.74429861 435.20299842 739.3211011 435.20404053 736.89790344 C435.20720492 731.67330037 435.21336801 726.4487098 435.22210693 721.22411346 C435.23469122 713.6430336 435.24074556 706.06195893 435.2450403 698.48087034 C435.25211089 686.14463718 435.26290902 673.80841056 435.27676392 661.47218323 C435.27800563 660.36478059 435.27800563 660.36478059 435.27927244 659.23500618 C435.2860049 653.25669835 435.29291906 647.27839073 435.29987526 641.30008316 C435.30592069 636.10354369 435.31190447 630.90700415 435.31777954 625.71046448 C435.31860767 624.97916428 435.31943579 624.24786408 435.32028902 623.49440327 C435.33405525 611.22784159 435.34377341 598.9612798 435.35068989 586.6947124 C435.35513381 579.15143074 435.36309522 571.60816921 435.3758347 564.06489691 C435.38538898 558.25133156 435.38962995 552.43777116 435.39208603 546.62419891 C435.39393438 544.26423436 435.39748645 541.90427032 435.40301895 539.54431152 C435.41744727 533.18057007 435.39001784 526.8194941 435.31523514 520.45617771 C435.29625684 517.10859709 435.3408998 513.76464181 435.38439941 510.41733551 C435.37633308 508.17183561 435.36615687 505.92634209 435.35366821 503.68086243 C435.38184411 502.6544254 435.41002001 501.62798838 435.43904972 500.57044721 C435.36793105 496.17870165 435.22949975 493.39074014 432.33017439 489.95990062 C429.97500498 487.8453367 429.97500498 487.8453367 427.5266065 486.07309484 C425.17441126 484.18921354 423.8200514 482.37638941 422.24858093 479.82270813 C419.11619728 474.80628645 415.27522317 470.86433526 411.07632446 466.72608948 C409.87273788 465.52184578 409.87273788 465.52184578 408.64483643 464.29327393 C406.01390062 461.66441315 403.37252534 459.0463184 400.73086548 456.42823792 C398.88988174 454.59285725 397.04956505 452.75680729 395.20988464 450.92012024 C390.87247929 446.59296558 386.52847037 442.27254682 382.1811114 437.95539546 C377.2483527 433.05617705 372.3241077 428.14843955 367.40057838 423.23994875 C358.98030852 414.84567974 350.55379366 406.45771883 342.12001038 398.07702637 C340.17861109 396.14771031 338.23789366 394.2177108 336.29727173 392.28761292 C335.78860628 391.78286186 335.27994083 391.27811081 334.75586128 390.75806427 C331.54453624 387.56344869 328.59076055 384.20961473 325.65274048 380.76417542 C323.82395152 378.84136911 322.0543818 377.21022625 320.03555298 375.51222229 C313.41600154 369.7490048 307.31942999 363.43250657 301.12930298 357.21730042 C299.76287976 355.84900812 298.39623263 354.4809394 297.02937317 353.11308289 C293.45020924 349.53012276 289.87405708 345.94417153 286.29855347 342.3575592 C282.66257201 338.71133726 279.02375286 335.0679497 275.38516235 331.42433167 C269.50990113 325.54030943 263.63634597 319.65459083 257.7651062 313.76655579 C256.98962181 312.98890366 256.98962181 312.98890366 256.19847107 312.19554138 C255.71028522 311.70593839 255.22209938 311.21633539 254.71912003 310.71189594 C253.32329692 309.31368267 251.92487874 307.91806158 250.52641296 306.52249146 C248.58402836 304.57510759 246.69732748 302.59745331 244.83633423 300.57276917 C234.3281641 289.22189926 223.36821668 278.60274556 211.73477173 268.41261292 C208.13421631 265.21278377 205.2495652 261.90368834 202.55117798 257.91651917 C201.21578028 256.00147566 201.21578028 256.00147566 198.29727173 254.28761292 C196.14452225 254.5960189 196.14452225 254.5960189 194.29727173 255.28761292 C194.29845181 255.90983456 194.2996319 256.5320562 194.30084775 257.17313305 C194.42922082 324.89771922 194.55510992 392.62230982 194.66796875 460.34692383 C194.6696546 461.35814898 194.67134045 462.36937414 194.67307739 463.41124248 C194.70969823 485.38650281 194.74587187 507.36176385 194.78158466 529.33702568 C194.79910026 540.1132795 194.81671471 550.88953316 194.8343811 561.66578674 C194.83701564 563.27435935 194.83701564 563.27435935 194.83970341 564.91542838 C194.89670533 599.69081023 194.96023783 634.46617644 195.02714752 669.24154053 C195.09585645 704.96992598 195.15799578 740.69831696 195.21183781 776.42672806 C195.21944112 781.47008258 195.22711974 786.51343698 195.23484421 791.55679131 C195.2363622 792.54942139 195.2378802 793.54205147 195.2394442 794.56476126 C195.2640994 810.5602409 195.29570506 826.55569966 195.32989314 842.55116145 C195.36409412 858.62177083 195.39101263 874.69237922 195.41044427 890.76301337 C195.42221971 900.31746356 195.43963198 909.87186524 195.46502874 919.42628914 C195.48143177 925.80393402 195.49057482 932.1815623 195.49375491 938.55922741 C195.49577798 942.19614255 195.5010142 945.83297616 195.51508327 949.46986634 C195.53015245 953.38426604 195.52973658 957.29857578 195.52775002 961.21300602 C195.53460839 962.34653695 195.54146676 963.48006788 195.54853296 964.64794824 C195.53215672 970.23794981 195.31982874 975.04450633 193.29727173 980.28761292 C190.16631352 982.89145528 186.90560441 982.44827675 182.97590637 982.2688446 C181.68956708 982.21788572 180.40322779 982.16692684 179.07790852 982.11442375 C178.38952385 982.08278751 177.70113918 982.05115127 176.99189436 982.01855636 C173.25322179 981.84914423 169.51314973 981.71997871 165.77294922 981.58943176 C164.99129869 981.56164686 164.20964815 981.53386195 163.40431124 981.50523508 C155.11800077 981.22374841 146.83507592 981.16795658 138.54458618 981.15821838 C137.41621875 981.15642747 137.41621875 981.15642747 136.26505601 981.15460038 C131.54779686 981.14820502 126.83056503 981.14944359 122.11330438 981.15328741 C117.90128542 981.15588564 113.68926823 981.15345418 109.47724915 981.15190125 C102.43605141 981.15010448 95.39486432 981.15242314 88.35366821 981.15724182 C80.25587891 981.16272014 72.15811466 981.16088605 64.06032592 981.15541542 C57.03104767 981.15086046 50.00177689 981.15024416 42.97249764 981.15285408 C38.80639655 981.15439864 34.64030722 981.15466055 30.47420692 981.1513176 C26.57256657 981.14840243 22.67095837 981.1504806 18.76932144 981.15621185 C17.35128647 981.15751833 15.93324873 981.15718198 14.51521492 981.15494919 C6.43429043 981.14340932 -1.46277613 981.42616107 -9.49432087 982.36638069 C-13.44305366 982.26943761 -16.13280132 980.90523889 -19.70272827 979.28761292 C-19.70257229 978.4550609 -19.70241631 977.62250888 -19.7022556 976.76472802 C-19.68544019 886.824039 -19.66974669 796.8833498 -19.66038513 704.89706421 C-19.66024568 703.53015598 -19.66010623 702.16324774 -19.65996678 700.79633951 C-19.65704408 672.10446316 -19.65432737 643.4125868 -19.65184859 614.72071041 C-19.6506032 600.30779227 -19.64931823 585.89487413 -19.64799583 571.481956 C-19.64779658 569.30782413 -19.64759846 567.13369226 -19.64740039 564.95956039 C-19.64434047 531.48171207 -19.64043179 498.00386411 -19.63406372 464.52601624 C-19.63392682 463.80623394 -19.63378992 463.08645165 -19.63364888 462.34485777 C-19.63143651 450.73986502 -19.6291529 439.13487227 -19.62685983 427.52987953 C-19.62025603 394.10317588 -19.6141792 360.6764725 -19.61158848 327.24976826 C-19.61153494 326.5623449 -19.61148141 325.87492155 -19.61142625 325.16666719 C-19.61026047 310.07589547 -19.60936563 294.98512375 -19.60872729 279.89435201 C-19.60846567 273.82229172 -19.60816505 267.75023144 -19.60785103 261.67817116 C-19.6078176 261.01361149 -19.60778417 260.34905183 -19.60774973 259.664354 C-19.60661946 237.59115429 -19.60200911 215.51795684 -19.59589624 193.444758 C-19.59001401 171.93882447 -19.58775904 150.432893 -19.58922689 128.9269587 C-19.58998867 116.14289622 -19.58794904 103.35884127 -19.58193073 90.57478014 C-19.57818628 82.03924353 -19.57806079 73.50371187 -19.58089646 64.96817492 C-19.58240892 60.10208291 -19.58233033 55.23600516 -19.57784509 50.36991467 C-19.57379437 45.94163975 -19.57436245 41.51339019 -19.5785883 37.08511565 C-19.57930155 35.49443211 -19.57834397 33.9037467 -19.57549303 32.31306555 C-19.56259521 24.62846857 -19.64059318 17.05172366 -20.63478855 9.41771497 C-20.70272827 7.28761292 -20.70272827 7.28761292 -19.20272827 4.22511292 C-13.50770855 -0.18852737 -6.90331346 -0.00817071 0 0 Z " fill="#FFFFFF" transform="translate(463.7027282714844,410.71238708496094)"/>
</svg>
